<?xml version="1.0" standalone="no"?>
<!DOCTYPE svg PUBLIC "-//W3C//DTD SVG 1.1//EN" "http://www.w3.org/Graphics/SVG/1.1/DTD/svg11.dtd" >
<!--
2013-9-30: Created.
-->
<svg>
<metadata>
Created by iconfont
</metadata>
<defs>

<font id="iconfont" horiz-adv-x="1024" >
  <font-face
    font-family="iconfont"
    font-weight="500"
    font-stretch="normal"
    units-per-em="1024"
    ascent="896"
    descent="-128"
  />
    <missing-glyph />
    
    <glyph glyph-name="back" unicode="&#58977;" d="M397.963636 384L726.109091 714.472727c18.618182 18.618182 18.618182 46.545455 0 65.163637s-46.545455 18.618182-65.163636 0L297.890909 418.909091c-18.618182-18.618182-18.618182-46.545455 0-65.163636L660.945455-11.636363999999958c18.618182-18.618182 46.545455-18.618182 65.163636 0s18.618182 46.545455 0 65.163637L397.963636 384z"  horiz-adv-x="1024" />

    
    <glyph glyph-name="keyboard" unicode="&#58978;" d="M512 230.39999999999998c-5.12 0-7.68 0-12.8 2.56l-460.8 256c-12.8 7.68-15.36 23.04-10.24 35.84 7.68 12.8 23.04 15.36 35.84 10.24L512 284.15999999999997l448 248.32c12.8 7.68 28.16 2.56 35.84-10.24 7.68-12.8 2.56-28.16-10.24-35.84l-460.8-256H512z"  horiz-adv-x="1024" />

    
    <glyph glyph-name="summary" unicode="&#58979;" d="M448 256h-153.6c-20.48 0-38.4-17.92-38.4-38.4s17.92-38.4 38.4-38.4h153.6c20.48 0 38.4 17.92 38.4 38.4s-17.92 38.4-38.4 38.4zM294.4 358.4h384c20.48 0 38.4 17.92 38.4 38.4s-17.92 38.4-38.4 38.4h-384c-20.48 0-38.4-17.92-38.4-38.4s17.92-38.4 38.4-38.4zM294.4 563.2h384c20.48 0 38.4 17.92 38.4 38.4s-17.92 38.4-38.4 38.4h-384c-20.48 0-38.4-17.92-38.4-38.4s17.92-38.4 38.4-38.4zM793.6 870.4H179.2C122.88 870.4 76.8 824.3199999999999 76.8 768v-768c0-56.32 46.08-102.4 102.4-102.4h486.4l230.4 230.4V768c0 56.32-46.08 102.4-102.4 102.4zM153.6 0V768c0 15.36 10.24 25.6 25.6 25.6h614.4c15.36 0 25.6-10.24 25.6-25.6v-512h-153.6c-56.32 0-102.4-46.08-102.4-102.4v-153.6c0-10.24 2.56-17.92 5.12-25.6H179.2c-15.36 0-25.6 10.24-25.6 25.6z m486.4 7.68V153.60000000000002c0 15.36 10.24 25.6 25.6 25.6h145.92L640 7.67999999999995z"  horiz-adv-x="1024" />

    
    <glyph glyph-name="details" unicode="&#58980;" d="M680.96 384l-358.4 399.36c-15.36 15.36-12.8 40.96 2.56 53.76 15.36 15.36 40.96 12.8 53.76-2.56L760.32 409.6c12.8-15.36 12.8-35.84 0-51.2L378.88-66.55999999999995c-7.68-7.68-17.92-12.8-28.16-12.8-10.24 0-17.92 2.56-25.6 10.24-15.36 15.36-17.92 38.4-2.56 53.76l358.4 399.36z"  horiz-adv-x="1024" />

    
    <glyph glyph-name="shopping" unicode="&#58981;" d="M819.2-51.200000000000045m-64 0a64 64 0 1 1 128 0 64 64 0 1 1-128 0ZM256-51.200000000000045m-64 0a64 64 0 1 1 128 0 64 64 0 1 1-128 0ZM883.2 192c56.32 0 102.4 46.08 102.4 102.4v358.4c0 56.32-46.08 102.4-102.4 102.4h-665.6V826.88c0 20.48-17.92 38.4-38.4 38.4H66.56c-20.48 0-38.4-17.92-38.4-38.4s17.92-38.4 38.4-38.4h74.24v-714.24c0-20.48 17.92-38.4 38.4-38.4h768c20.48 0 38.4 17.92 38.4 38.4s-17.92 38.4-38.4 38.4H217.6v79.36h665.6z m0 486.4c15.36 0 25.6-10.24 25.6-25.6v-358.4c0-15.36-10.24-25.6-25.6-25.6h-665.6v409.6h665.6z"  horiz-adv-x="1024" />

    
    <glyph glyph-name="classification" unicode="&#58982;" d="M844.8 358.4h-204.8c-56.32 0-102.4-46.08-102.4-102.4v-204.8c0-56.32 46.08-102.4 102.4-102.4h204.8c56.32 0 102.4 46.08 102.4 102.4v204.8c0 56.32-46.08 102.4-102.4 102.4z m25.6-307.2c0-15.36-10.24-25.6-25.6-25.6h-204.8c-15.36 0-25.6 10.24-25.6 25.6v204.8c0 15.36 10.24 25.6 25.6 25.6h204.8c15.36 0 25.6-10.24 25.6-25.6v-204.8zM358.4 358.4H153.6c-56.32 0-102.4-46.08-102.4-102.4v-204.8c0-56.32 46.08-102.4 102.4-102.4h204.8c56.32 0 102.4 46.08 102.4 102.4v204.8c0 56.32-46.08 102.4-102.4 102.4z m25.6-307.2c0-15.36-10.24-25.6-25.6-25.6H153.6c-15.36 0-25.6 10.24-25.6 25.6v204.8c0 15.36 10.24 25.6 25.6 25.6h204.8c15.36 0 25.6-10.24 25.6-25.6v-204.8zM844.8 844.8h-204.8c-56.32 0-102.4-46.08-102.4-102.4v-204.8c0-56.32 46.08-102.4 102.4-102.4h204.8c56.32 0 102.4 46.08 102.4 102.4V742.4c0 56.32-46.08 102.4-102.4 102.4z m25.6-307.2c0-15.36-10.24-25.6-25.6-25.6h-204.8c-15.36 0-25.6 10.24-25.6 25.6V742.4c0 15.36 10.24 25.6 25.6 25.6h204.8c15.36 0 25.6-10.24 25.6-25.6v-204.8zM358.4 844.8H153.6C97.28 844.8 51.2 798.72 51.2 742.4v-204.8c0-56.32 46.08-102.4 102.4-102.4h204.8c56.32 0 102.4 46.08 102.4 102.4V742.4c0 56.32-46.08 102.4-102.4 102.4z m25.6-307.2c0-15.36-10.24-25.6-25.6-25.6H153.6c-15.36 0-25.6 10.24-25.6 25.6V742.4c0 15.36 10.24 25.6 25.6 25.6h204.8c15.36 0 25.6-10.24 25.6-25.6v-204.8z"  horiz-adv-x="1024" />

    
    <glyph glyph-name="recording" unicode="&#58983;" d="M294.4 588.8h332.8c20.48 0 38.4 17.92 38.4 38.4S647.68 665.6 627.2 665.6h-332.8c-20.48 0-38.4-17.92-38.4-38.4s17.92-38.4 38.4-38.4zM993.28 220.15999999999997L921.6 291.84000000000003c-10.24 10.24-23.04 15.36-35.84 15.36s-25.6-5.12-35.84-15.36l-253.44-253.44-17.92-163.84 161.28 17.92 253.44 253.44c20.48 23.04 20.48 53.76 0 74.24z m-286.72-253.44l-40.96-2.56 5.12 40.96 215.04 215.04 35.84-35.84-215.04-217.6zM870.4 842.24C870.4 872.96 844.8 896 814.08 896H107.52C76.8 896 51.2 872.96 51.2 842.24v-865.28C51.2-53.75999999999999 76.8-76.79999999999995 107.52-76.79999999999995h309.76L870.4 355.84000000000003v486.4z m-76.8-453.12L386.56 0H128V819.2h665.6v-430.08z"  horiz-adv-x="1024" />

    
    <glyph glyph-name="mode02" unicode="&#58984;" d="M908.8 704h-793.6C94.72 704 76.8 721.92 76.8 742.4s17.92 38.4 38.4 38.4h793.6c20.48 0 38.4-17.92 38.4-38.4s-17.92-38.4-38.4-38.4zM908.8 345.6h-793.6c-20.48 0-38.4 17.92-38.4 38.4s17.92 38.4 38.4 38.4h793.6c20.48 0 38.4-17.92 38.4-38.4s-17.92-38.4-38.4-38.4zM115.2 64h793.6c20.48 0 38.4-17.92 38.4-38.4s-17.92-38.4-38.4-38.4h-793.6c-20.48 0-38.4 17.92-38.4 38.4s17.92 38.4 38.4 38.4z"  horiz-adv-x="1024" />

    
    <glyph glyph-name="contact" unicode="&#58985;" d="M494.08 506.88c33.28-10.24 58.88-35.84 79.36-66.56 17.92-33.28 25.6-69.12 20.48-102.4-5.12-20.48 10.24-40.96 30.72-46.08h7.68c17.92 0 33.28 12.8 38.4 30.72 10.24 51.2 0 107.52-28.16 156.16-28.16 48.64-71.68 84.48-120.32 102.4-20.48 7.68-40.96-2.56-48.64-23.04s0-43.52 20.48-51.2zM588.8 693.76c-20.48 5.12-40.96-5.12-48.64-25.6s5.12-40.96 25.6-48.64c56.32-15.36 104.96-53.76 135.68-107.52 30.72-53.76 40.96-115.2 25.6-171.52-5.12-20.48 7.68-40.96 28.16-46.08 2.56 0 7.68-2.56 10.24-2.56 17.92 0 33.28 10.24 35.84 28.16 20.48 76.8 10.24 161.28-33.28 230.4-38.4 71.68-102.4 122.88-179.2 143.36zM898.56 624.64c-58.88 102.4-163.84 171.52-276.48 186.88-20.48 2.56-40.96-12.8-43.52-33.28-2.56-20.48 12.8-40.96 33.28-43.52 89.6-12.8 174.08-69.12 220.16-151.04 48.64-81.92 56.32-184.32 20.48-266.24-7.68-20.48 0-40.96 20.48-51.2 5.12-2.56 10.24-2.56 15.36-2.56 15.36 0 28.16 7.68 35.84 23.04 43.52 110.08 33.28 235.52-25.6 337.92zM750.08 92.15999999999997l-181.76 145.92c-12.8 10.24-28.16 10.24-43.52 2.56l-84.48-48.64c-25.6 12.8-92.16 71.68-122.88 122.88-30.72 51.2-46.08 133.12-46.08 163.84l84.48 48.64c15.36 7.68 20.48 23.04 17.92 40.96l-40.96 230.4v2.56C317.44 855.04 271.36 888.32 225.28 875.52c-2.56 0-7.68-2.56-10.24-5.12L168.96 844.8C115.2 814.08 76.8 760.3199999999999 56.32 688.64c-35.84-133.12 0-309.76 94.72-471.04 117.76-202.24 294.4-327.68 442.88-327.68 40.96 0 79.36 10.24 115.2 28.16 0 0 2.56 2.56 5.12 2.56h2.56l43.52 33.28c2.56 0 2.56 2.56 5.12 2.56 15.36 15.36 23.04 35.84 23.04 56.32 0 25.6-12.8 53.76-33.28 74.24l-5.12 5.12z m-79.36-107.52C550.4-81.91999999999996 343.04 40.960000000000036 217.6 256 133.12 399.36 99.84 558.0799999999999 130.56 668.16c12.8 51.2 40.96 89.6 76.8 110.08l38.4 23.04c2.56-2.56 10.24-7.68 12.8-17.92l38.4-204.8L225.28 537.6c-7.68-5.12-20.48-15.36-25.6-33.28-12.8-51.2 17.92-168.96 53.76-227.84 25.6-43.52 153.6-194.56 217.6-158.72l71.68 40.96 158.72-128c7.68-7.68 10.24-15.36 7.68-20.48l-38.4-25.6z"  horiz-adv-x="1024" />

    
    <glyph glyph-name="mode" unicode="&#58986;" d="M192 780.8v-793.6c0-20.48-17.92-38.4-38.4-38.4s-38.4 17.92-38.4 38.4v793.6C115.2 801.28 133.12 819.2 153.6 819.2s38.4-17.92 38.4-38.4zM550.4 780.8v-793.6c0-20.48-17.92-38.4-38.4-38.4s-38.4 17.92-38.4 38.4v793.6c0 20.48 17.92 38.4 38.4 38.4s38.4-17.92 38.4-38.4zM832-12.799999999999955v793.6c0 20.48 17.92 38.4 38.4 38.4s38.4-17.92 38.4-38.4v-793.6c0-20.48-17.92-38.4-38.4-38.4s-38.4 17.92-38.4 38.4z"  horiz-adv-x="1024" />

    
    <glyph glyph-name="calendar" unicode="&#58987;" d="M870.4 742.4h-128V780.8c0 20.48-17.92 38.4-38.4 38.4S665.6 801.28 665.6 780.8V742.4H358.4V780.8c0 20.48-17.92 38.4-38.4 38.4S281.6 801.28 281.6 780.8V742.4H153.6c-56.32 0-102.4-46.08-102.4-102.4v-640c0-56.32 46.08-102.4 102.4-102.4h716.8c56.32 0 102.4 46.08 102.4 102.4V640c0 56.32-46.08 102.4-102.4 102.4zM153.6 665.6h128v-64c0-20.48 17.92-38.4 38.4-38.4s38.4 17.92 38.4 38.4V665.6h307.2v-64c0-20.48 17.92-38.4 38.4-38.4s38.4 17.92 38.4 38.4V665.6h128c15.36 0 25.6-10.24 25.6-25.6v-156.16c-5.12 2.56-7.68 2.56-12.8 2.56h-742.4c-5.12 0-7.68 0-12.8-2.56V640c0 15.36 10.24 25.6 25.6 25.6z m716.8-691.2H153.6c-15.36 0-25.6 10.24-25.6 25.6V412.16c5.12-2.56 7.68-2.56 12.8-2.56h742.4c5.12 0 7.68 0 12.8 2.56V0c0-15.36-10.24-25.6-25.6-25.6z"  horiz-adv-x="1024" />

    
    <glyph glyph-name="switch" unicode="&#58988;" d="M931.84 335.36c-5.12 10.24-12.8 15.36-23.04 15.36h-768c-20.48 0-38.4-17.92-38.4-38.4s17.92-38.4 38.4-38.4h537.6v-153.6c0-10.24 5.12-20.48 15.36-23.04 2.56-2.56 7.68-2.56 10.24-2.56 7.68 0 12.8 2.56 17.92 7.68l204.8 204.8c7.68 7.68 10.24 20.48 5.12 28.16zM166.4 414.72h716.8c20.48 0 38.4 17.92 38.4 38.4s-17.92 38.4-38.4 38.4h-537.6v153.6c0 10.24-5.12 20.48-15.36 23.04-2.56 2.56-7.68 2.56-10.24 2.56-7.68 0-12.8-2.56-17.92-7.68l-204.8-204.8c-7.68-7.68-10.24-17.92-5.12-28.16 5.12-10.24 12.8-15.36 23.04-15.36h51.2z"  horiz-adv-x="1024" />

    
    <glyph glyph-name="code" unicode="&#58989;" d="M934.4 435.2h-844.8c-20.48 0-38.4-17.92-38.4-38.4S69.12 358.4 89.6 358.4h844.8c20.48 0 38.4 17.92 38.4 38.4s-17.92 38.4-38.4 38.4zM913.92 273.91999999999996c-20.48 0-38.4-17.92-38.4-38.4v-163.84c0-33.28-17.92-53.76-35.84-53.76h-181.76c-20.48 0-38.4-17.92-38.4-38.4s17.92-38.4 38.4-38.4h181.76c61.44 0 112.64 58.88 112.64 130.56v163.84c0 23.04-15.36 38.4-38.4 38.4zM366.08 17.91999999999996H184.32c-15.36 0-35.84 23.04-35.84 53.76v163.84c0 20.48-17.92 38.4-38.4 38.4s-38.4-17.92-38.4-38.4v-163.84c0-71.68 51.2-130.56 112.64-130.56h181.76c20.48 0 38.4 17.92 38.4 38.4s-15.36 38.4-38.4 38.4zM657.92 775.6800000000001h181.76c15.36 0 35.84-23.04 35.84-53.76v-163.84c0-20.48 17.92-38.4 38.4-38.4s38.4 17.92 38.4 38.4V719.36c0 71.68-51.2 130.56-112.64 130.56h-181.76c-20.48 0-38.4-17.92-38.4-38.4s17.92-35.84 38.4-35.84zM110.08 519.6800000000001c20.48 0 38.4 17.92 38.4 38.4V721.92c0 33.28 17.92 53.76 35.84 53.76h181.76c20.48 0 38.4 17.92 38.4 38.4s-17.92 38.4-38.4 38.4H184.32C122.88 852.48 71.68 793.6 71.68 721.92v-163.84c0-20.48 17.92-38.4 38.4-38.4z"  horiz-adv-x="1024" />

    
    <glyph glyph-name="filter" unicode="&#58990;" d="M960 76.79999999999995h-230.4c-20.48 0-38.4-17.92-38.4-38.4s17.92-38.4 38.4-38.4h230.4c20.48 0 38.4 17.92 38.4 38.4s-17.92 38.4-38.4 38.4zM960 230.39999999999998h-230.4c-20.48 0-38.4-17.92-38.4-38.4s17.92-38.4 38.4-38.4h230.4c20.48 0 38.4 17.92 38.4 38.4s-17.92 38.4-38.4 38.4zM691.2 345.6c0-20.48 17.92-38.4 38.4-38.4h230.4c20.48 0 38.4 17.92 38.4 38.4s-17.92 38.4-38.4 38.4h-230.4c-20.48 0-38.4-17.92-38.4-38.4zM844.8 716.8c0 76.8-56.32 140.8-125.44 140.8H202.24C133.12 857.6 76.8 793.6 76.8 716.8c0-7.68 2.56-15.36 7.68-20.48l209.92-304.64V25.600000000000023c0-20.48 17.92-38.4 38.4-38.4s38.4 17.92 38.4 38.4V401.92c0 7.68-2.56 15.36-7.68 20.48L153.6 727.04c5.12 30.72 25.6 53.76 48.64 53.76h519.68c23.04 0 43.52-23.04 46.08-53.76l-207.36-304.64c-5.12-5.12-7.68-12.8-7.68-20.48V-76.79999999999995c0-20.48 17.92-38.4 38.4-38.4s38.4 17.92 38.4 38.4V389.12l209.92 304.64c2.56 7.68 5.12 15.36 5.12 23.04z"  horiz-adv-x="1024" />

    
    <glyph glyph-name="commodity" unicode="&#58993;" d="M870.4 665.6h-94.72C752.64 788.48 645.12 883.2 512 883.2S271.36 788.48 248.32 665.6H153.6c-56.32 0-102.4-46.08-102.4-102.4v-563.2c0-56.32 46.08-102.4 102.4-102.4h716.8c56.32 0 102.4 46.08 102.4 102.4V563.2c0 56.32-46.08 102.4-102.4 102.4zM512 806.4c89.6 0 163.84-58.88 186.88-140.8H325.12c23.04 81.92 97.28 140.8 186.88 140.8zM896 0c0-15.36-10.24-25.6-25.6-25.6H153.6c-15.36 0-25.6 10.24-25.6 25.6V563.2c0 15.36 10.24 25.6 25.6 25.6h89.6v-128c0-20.48 17.92-38.4 38.4-38.4s38.4 17.92 38.4 38.4v128h384v-128c0-20.48 17.92-38.4 38.4-38.4s38.4 17.92 38.4 38.4v128H870.4c15.36 0 25.6-10.24 25.6-25.6v-563.2z"  horiz-adv-x="1024" />

    
    <glyph glyph-name="increase" unicode="&#58994;" d="M947.2 422.4H550.4V819.2c0 20.48-17.92 38.4-38.4 38.4s-38.4-17.92-38.4-38.4v-396.8H76.8c-20.48 0-38.4-17.92-38.4-38.4s17.92-38.4 38.4-38.4h396.8V-51.200000000000045c0-20.48 17.92-38.4 38.4-38.4s38.4 17.92 38.4 38.4V345.6H947.2c20.48 0 38.4 17.92 38.4 38.4s-17.92 38.4-38.4 38.4z"  horiz-adv-x="1024" />

    
    <glyph glyph-name="voice" unicode="&#58995;" d="M499.2 204.79999999999995c133.12 0 243.2 110.08 243.2 243.2v204.8C742.4 785.92 632.32 896 499.2 896S256 785.92 256 652.8v-204.8c0-133.12 110.08-243.2 243.2-243.2zM332.8 652.8C332.8 744.96 407.04 819.2 499.2 819.2S665.6 744.96 665.6 652.8v-204.8c0-92.16-74.24-166.4-166.4-166.4S332.8 355.84000000000003 332.8 448v204.8zM896 550.4c-20.48 0-38.4-17.92-38.4-38.4v-43.52c0-186.88-161.28-337.92-358.4-337.92s-358.4 151.04-358.4 335.36V512c0 20.48-17.92 38.4-38.4 38.4s-38.4-17.92-38.4-38.4v-46.08c0-215.04 174.08-391.68 396.8-409.6v-145.92c0-20.48 17.92-38.4 38.4-38.4s38.4 17.92 38.4 38.4v145.92c222.72 17.92 396.8 197.12 396.8 412.16V512c0 20.48-17.92 38.4-38.4 38.4z"  horiz-adv-x="1024" />

    
    <glyph glyph-name="news" unicode="&#58996;" d="M729.6 409.6h-435.2c-20.48 0-38.4-17.92-38.4-38.4s17.92-38.4 38.4-38.4h435.2c20.48 0 38.4 17.92 38.4 38.4s-17.92 38.4-38.4 38.4zM729.6 614.4h-435.2c-20.48 0-38.4-17.92-38.4-38.4s17.92-38.4 38.4-38.4h435.2c20.48 0 38.4 17.92 38.4 38.4s-17.92 38.4-38.4 38.4zM844.8 870.4H179.2C94.72 870.4 25.6 801.28 25.6 716.8v-512c0-84.48 69.12-153.6 153.6-153.6h258.56l122.88-179.2 128 179.2H844.8c84.48 0 153.6 69.12 153.6 153.6V716.8c0 84.48-69.12 153.6-153.6 153.6z m76.8-665.6c0-43.52-33.28-76.8-76.8-76.8h-156.16c-25.6 0-48.64-12.8-61.44-33.28L563.2 5.1200000000000045l-61.44 89.6c-15.36 20.48-38.4 33.28-64 33.28H179.2c-43.52 0-76.8 33.28-76.8 76.8V716.8c0 43.52 33.28 76.8 76.8 76.8h665.6c43.52 0 76.8-33.28 76.8-76.8v-512z"  horiz-adv-x="1024" />

    
    <glyph glyph-name="set" unicode="&#58997;" d="M512 619.52c-130.56 0-235.52-104.96-235.52-235.52s104.96-235.52 235.52-235.52 235.52 104.96 235.52 235.52-104.96 235.52-235.52 235.52z m0-394.24c-87.04 0-158.72 71.68-158.72 158.72s71.68 158.72 158.72 158.72 158.72-71.68 158.72-158.72-71.68-158.72-158.72-158.72zM972.8 353.28c-7.68 5.12-20.48 12.8-25.6 17.92v23.04c7.68 5.12 17.92 15.36 25.6 17.92 30.72 17.92 43.52 51.2 35.84 84.48-12.8 56.32-35.84 110.08-66.56 158.72-10.24 23.04-35.84 35.84-61.44 35.84h-15.36l-15.36-2.56c-2.56 0-5.12 0-5.12-2.56-2.56 0-7.68-2.56-12.8-2.56l-17.92 17.92c0 10.24 2.56 23.04 5.12 33.28 10.24 33.28-5.12 66.56-33.28 84.48-48.64 30.72-102.4 53.76-158.72 66.56-5.12 2.56-10.24 2.56-17.92 2.56-28.16 0-53.76-15.36-66.56-38.4-5.12-10.24-12.8-20.48-17.92-25.6h-23.04c-5.12 7.68-12.8 17.92-17.92 25.6C471.04 872.96 442.88 888.32 417.28 888.32c-5.12 0-10.24 0-17.92-2.56-56.32-15.36-110.08-38.4-158.72-69.12-30.72-17.92-43.52-53.76-33.28-84.48 2.56-10.24 5.12-23.04 5.12-30.72l-15.36-17.92c-12.8 0-28.16 5.12-30.72 5.12-7.68 2.56-15.36 2.56-23.04 2.56-25.6 0-51.2-12.8-64-35.84-30.72-48.64-53.76-102.4-66.56-158.72-7.68-33.28 7.68-66.56 38.4-84.48 7.68-5.12 20.48-12.8 25.6-17.92v-23.04c-7.68-5.12-17.92-15.36-25.6-17.92-30.72-17.92-43.52-51.2-35.84-84.48 12.8-56.32 35.84-110.08 66.56-158.72 10.24-20.48 35.84-33.28 61.44-33.28 7.68 0 12.8 0 20.48 2.56 7.68 2.56 20.48 5.12 30.72 5.12l15.36-15.36c0-10.24-2.56-23.04-5.12-33.28-7.68-33.28 5.12-66.56 33.28-84.48 48.64-30.72 102.4-53.76 158.72-66.56 5.12-2.56 10.24-2.56 17.92-2.56 28.16 0 53.76 15.36 66.56 38.4 5.12 7.68 12.8 20.48 17.92 25.6h23.04c5.12-7.68 15.36-17.92 17.92-25.6 12.8-25.6 38.4-38.4 66.56-38.4 5.12 0 10.24 0 17.92 2.56 56.32 12.8 110.08 35.84 158.72 66.56 28.16 17.92 40.96 53.76 33.28 84.48-2.56 10.24-5.12 23.04-5.12 30.72l15.36 15.36c12.8 0 28.16-5.12 30.72-5.12 7.68-2.56 12.8-2.56 20.48-2.56 25.6 0 51.2 12.8 64 35.84 30.72 48.64 53.76 102.4 66.56 158.72 10.24 33.28-5.12 69.12-35.84 84.48z m-35.84-66.56c-10.24-48.64-30.72-94.72-56.32-135.68 0 0-30.72 7.68-56.32 7.68-15.36 0-28.16-2.56-38.4-10.24l-40.96-40.96c-23.04-23.04-2.56-94.72-2.56-94.72-40.96-25.6-87.04-46.08-135.68-56.32 0 0-35.84 66.56-69.12 66.56h-56.32c-30.72 0-69.12-66.56-69.12-66.56-48.64 10.24-94.72 30.72-135.68 56.32 0 0 20.48 71.68-2.56 94.72l-40.96 40.96c-7.68 7.68-23.04 10.24-38.4 10.24-28.16 0-56.32-7.68-56.32-7.68-25.6 40.96-46.08 87.04-56.32 135.68 0 0 66.56 35.84 66.56 69.12v56.32c0 30.72-66.56 69.12-66.56 69.12 10.24 48.64 30.72 94.72 56.32 135.68 0 0 30.72-7.68 56.32-7.68 15.36 0 28.16 2.56 38.4 10.24l40.96 40.96c28.16 20.48 7.68 92.16 7.68 92.16 40.96 25.6 87.04 46.08 135.68 56.32 0 0 35.84-66.56 69.12-66.56h56.32c30.72 0 69.12 66.56 69.12 66.56 48.64-10.24 94.72-30.72 135.68-56.32 0 0-20.48-71.68 2.56-94.72l40.96-40.96c7.68-7.68 23.04-12.8 35.84-12.8 20.48 0 40.96 5.12 40.96 5.12l15.36 2.56c25.6-40.96 46.08-87.04 56.32-135.68 0 0-66.56-35.84-66.56-69.12v-56.32c-2.56-25.6 64-64 64-64z"  horiz-adv-x="1024" />

    
    <glyph glyph-name="selected" unicode="&#58998;" d="M778.24 514.56c-10.24 10.24-25.6 10.24-35.84 0l-256-248.32-153.6 148.48c-10.24 10.24-25.6 10.24-35.84 0-10.24-10.24-10.24-25.6 0-35.84l171.52-166.4c5.12-5.12 10.24-7.68 17.92-7.68 7.68 0 12.8 2.56 17.92 7.68l273.92 266.24c10.24 10.24 10.24 25.6 0 35.84zM512 793.6C286.72 793.6 102.4 609.28 102.4 384s184.32-409.6 409.6-409.6 409.6 184.32 409.6 409.6S737.28 793.6 512 793.6z m0-768c-197.12 0-358.4 161.28-358.4 358.4S314.88 742.4 512 742.4s358.4-161.28 358.4-358.4-161.28-358.4-358.4-358.4z"  horiz-adv-x="1024" />

    
    <glyph glyph-name="address" unicode="&#58999;" d="M512 768C327.68 768 179.2 616.96 179.2 432.64 179.2 256 450.56 35.84000000000003 481.28 12.799999999999955c10.24-7.68 20.48-10.24 30.72-10.24s23.04 2.56 30.72 10.24C573.44 38.39999999999998 844.8 256 844.8 432.64 844.8 616.96 696.32 768 512 768z m0-716.8S230.4 273.91999999999996 230.4 432.64C230.4 588.8 355.84 716.8 512 716.8s281.6-128 281.6-284.16C793.6 273.91999999999996 512 51.200000000000045 512 51.200000000000045zM512 640c-112.64 0-204.8-92.16-204.8-204.8s92.16-204.8 204.8-204.8 204.8 92.16 204.8 204.8-92.16 204.8-204.8 204.8z m0-358.4c-84.48 0-153.6 69.12-153.6 153.6s69.12 153.6 153.6 153.6 153.6-69.12 153.6-153.6-69.12-153.6-153.6-153.6z"  horiz-adv-x="1024" />

    
    <glyph glyph-name="shutdown" unicode="&#59000;" d="M752.64 179.20000000000005l-204.8 204.8 204.8 204.8c15.36 15.36 17.92 35.84 10.24 43.52-10.24 10.24-30.72 5.12-43.52-10.24l-204.8-204.8-204.8 204.8c-15.36 15.36-35.84 17.92-43.52 10.24-10.24-10.24-5.12-30.72 10.24-43.52l204.8-204.8-204.8-204.8c-15.36-15.36-17.92-35.84-10.24-43.52 10.24-10.24 30.72-5.12 43.52 10.24l204.8 204.8 204.8-204.8c15.36-15.36 35.84-17.92 43.52-10.24 10.24 7.68 5.12 28.16-10.24 43.52z"  horiz-adv-x="1024" />

    
    <glyph glyph-name="phone" unicode="&#59001;" d="M499.2 494.08c28.16-10.24 53.76-30.72 69.12-58.88 17.92-28.16 23.04-61.44 17.92-92.16-2.56-12.8 5.12-28.16 20.48-30.72h5.12c12.8 0 23.04 7.68 25.6 20.48 7.68 40.96 0 87.04-23.04 128-23.04 38.4-56.32 69.12-97.28 81.92-12.8 5.12-28.16-2.56-33.28-15.36-5.12-15.36 2.56-28.16 15.36-33.28zM576 640c-12.8 5.12-28.16-5.12-30.72-17.92-5.12-12.8 5.12-28.16 17.92-30.72 48.64-15.36 92.16-46.08 117.76-92.16 28.16-46.08 35.84-99.84 20.48-151.04-2.56-12.8 5.12-28.16 17.92-30.72h7.68c10.24 0 20.48 7.68 25.6 17.92 17.92 64 7.68 130.56-25.6 189.44-38.4 56.32-89.6 97.28-151.04 115.2zM829.44 583.6800000000001c-48.64 84.48-133.12 140.8-225.28 156.16-15.36 2.56-28.16-7.68-30.72-23.04-2.56-12.8 7.68-28.16 20.48-28.16 76.8-10.24 148.48-58.88 189.44-130.56 40.96-71.68 48.64-158.72 17.92-232.96-5.12-12.8 0-28.16 12.8-33.28 2.56-2.56 7.68-2.56 10.24-2.56 10.24 0 20.48 5.12 23.04 15.36 38.4 89.6 30.72 194.56-17.92 279.04zM555.52 253.44000000000005c-7.68 7.68-20.48 7.68-28.16 2.56l-74.24-40.96c-20.48 10.24-81.92 61.44-107.52 107.52-28.16 46.08-40.96 122.88-38.4 145.92l74.24 40.96c10.24 5.12 15.36 15.36 12.8 25.6L358.4 732.16c-5.12 17.92-15.36 35.84-28.16 46.08-17.92 15.36-38.4 20.48-56.32 15.36-2.56 0-5.12-2.56-7.68-2.56L227.84 768C184.32 742.4 153.6 698.88 138.24 640c-30.72-110.08 0-256 79.36-394.24C314.88 76.79999999999995 460.8-25.600000000000023 581.12-25.600000000000023c33.28 0 64 7.68 94.72 23.04l2.56 2.56 35.84 28.16 2.56 2.56c10.24 10.24 17.92 25.6 17.92 43.52 0 20.48-10.24 40.96-28.16 58.88l-151.04 120.32z m128-186.88l-33.28-25.6c-102.4-58.88-281.6 46.08-389.12 230.4-71.68 122.88-99.84 258.56-74.24 353.28 12.8 43.52 35.84 76.8 66.56 97.28l35.84 20.48c2.56 0 5.12-2.56 5.12-2.56 5.12-5.12 10.24-10.24 10.24-15.36l33.28-179.2-64-35.84c-7.68-5.12-15.36-12.8-17.92-23.04-10.24-38.4 12.8-133.12 43.52-186.88 25.6-43.52 125.44-158.72 171.52-130.56l64 35.84 135.68-110.08c7.68-7.68 10.24-15.36 10.24-20.48 2.56-5.12 2.56-5.12 2.56-7.68z"  horiz-adv-x="1024" />

    
    <glyph glyph-name="refuse" unicode="&#59002;" d="M332.8 307.20000000000005c-15.36 0-25.6-10.24-25.6-25.6s10.24-25.6 25.6-25.6h204.8c15.36 0 25.6 10.24 25.6 25.6s-10.24 25.6-25.6 25.6h-204.8zM716.8 435.2c0 15.36-10.24 25.6-25.6 25.6H332.8c-15.36 0-25.6-10.24-25.6-25.6s10.24-25.6 25.6-25.6h358.4c15.36 0 25.6 10.24 25.6 25.6zM691.2 614.4H332.8c-15.36 0-25.6-10.24-25.6-25.6s10.24-25.6 25.6-25.6h358.4c15.36 0 25.6 10.24 25.6 25.6s-10.24 25.6-25.6 25.6zM778.24 153.60000000000002l89.6 89.6c10.24 10.24 10.24 25.6 0 35.84-10.24 10.24-25.6 10.24-35.84 0L742.4 189.44000000000005l-89.6 89.6c-10.24 10.24-25.6 10.24-35.84 0-10.24-10.24-10.24-25.6 0-35.84l89.6-89.6-89.6-89.6c-10.24-10.24-10.24-25.6 0-35.84 10.24-10.24 25.6-10.24 35.84 0l89.6 89.6 89.6-89.6c10.24-10.24 25.6-10.24 35.84 0 10.24 10.24 10.24 25.6 0 35.84L778.24 153.60000000000002zM555.52 51.200000000000045h-281.6C235.52 51.200000000000045 204.8 81.91999999999996 204.8 120.32000000000005V647.6800000000001C204.8 686.08 235.52 716.8 273.92 716.8h476.16C788.48 716.8 819.2 686.08 819.2 647.6800000000001v-284.16c0-15.36 10.24-25.6 25.6-25.6s25.6 10.24 25.6 25.6V647.6800000000001C870.4 714.24 816.64 768 750.08 768H273.92C207.36 768 153.6 714.24 153.6 647.6800000000001v-524.8c0-66.56 53.76-120.32 120.32-120.32h281.6c15.36 0 25.6 10.24 25.6 25.6s-12.8 23.04-25.6 23.04z"  horiz-adv-x="1024" />

    
    <glyph glyph-name="hide" unicode="&#59003;" d="M970.24 445.44L896 504.32c17.92 20.48 30.72 35.84 33.28 35.84 7.68 10.24 7.68 28.16-5.12 35.84-10.24 7.68-28.16 7.68-35.84-5.12-2.56-2.56-168.96-215.04-368.64-215.04-199.68 0-366.08 212.48-368.64 215.04-7.68 10.24-25.6 12.8-35.84 5.12-10.24-7.68-12.8-25.6-5.12-35.84 2.56-2.56 7.68-10.24 20.48-25.6l-76.8-64c-10.24-10.24-12.8-25.6-2.56-35.84 10.24-10.24 25.6-12.8 35.84-2.56l79.36 66.56v2.56c30.72-30.72 71.68-66.56 122.88-97.28l-51.2-71.68c-7.68-12.8-5.12-28.16 5.12-35.84 12.8-7.68 28.16-5.12 35.84 5.12l53.76 76.8c48.64-25.6 102.4-43.52 161.28-48.64v-99.84c0-15.36 10.24-25.6 25.6-25.6s25.6 10.24 25.6 25.6v99.84c48.64 2.56 97.28 17.92 140.8 38.4l53.76-74.24c7.68-12.8 25.6-15.36 35.84-5.12 12.8 7.68 15.36 23.04 7.68 35.84l-48.64 69.12c51.2 30.72 94.72 66.56 128 97.28l76.8-64c10.24-10.24 28.16-7.68 35.84 2.56 7.68 10.24 5.12 25.6-5.12 35.84z"  horiz-adv-x="1024" />

    
    <glyph glyph-name="password" unicode="&#59004;" d="M563.2 358.4h-102.4c-28.16 0-51.2-23.04-51.2-51.2s23.04-51.2 51.2-51.2h25.6v-51.2c0-15.36 10.24-25.6 25.6-25.6s25.6 10.24 25.6 25.6v51.2h25.6c28.16 0 51.2 23.04 51.2 51.2s-23.04 51.2-51.2 51.2zM768 563.2h-51.2v33.28c0 115.2-92.16 209.92-204.8 209.92s-204.8-94.72-204.8-209.92V563.2h-51.2c-56.32 0-102.4-46.08-102.4-102.4v-332.8c0-56.32 46.08-102.4 102.4-102.4h512c56.32 0 102.4 46.08 102.4 102.4V460.8c0 56.32-46.08 102.4-102.4 102.4z m-409.6 33.28c0 87.04 69.12 158.72 153.6 158.72s153.6-71.68 153.6-158.72V563.2H358.4v33.28zM819.2 128c0-28.16-23.04-51.2-51.2-51.2H256c-28.16 0-51.2 23.04-51.2 51.2V460.8c0 28.16 23.04 51.2 51.2 51.2h512c28.16 0 51.2-23.04 51.2-51.2v-332.8z"  horiz-adv-x="1024" />

    
    <glyph glyph-name="deleted" unicode="&#59005;" d="M614.4 435.2c-15.36 0-25.6-10.24-25.6-25.6v-307.2c0-15.36 10.24-25.6 25.6-25.6s25.6 10.24 25.6 25.6V409.6c0 15.36-10.24 25.6-25.6 25.6zM512 435.2c-15.36 0-25.6-10.24-25.6-25.6v-307.2c0-15.36 10.24-25.6 25.6-25.6s25.6 10.24 25.6 25.6V409.6c0 15.36-10.24 25.6-25.6 25.6zM409.6 435.2c-15.36 0-25.6-10.24-25.6-25.6v-307.2c0-15.36 10.24-25.6 25.6-25.6s25.6 10.24 25.6 25.6V409.6c0 15.36-10.24 25.6-25.6 25.6zM204.8 20.480000000000018c0-25.6 20.48-46.08 46.08-46.08h519.68c25.6 0 46.08 20.48 46.08 46.08V588.8H204.8v-568.32zM256 537.6h512v-512H256V537.6zM844.8 665.6h-204.8V716.8c0 28.16-23.04 51.2-51.2 51.2h-153.6c-28.16 0-51.2-23.04-51.2-51.2v-51.2H179.2c-15.36 0-25.6-10.24-25.6-25.6s10.24-25.6 25.6-25.6h665.6c15.36 0 25.6 10.24 25.6 25.6s-10.24 25.6-25.6 25.6zM435.2 665.6V716.8h153.6v-51.2h-153.6z"  horiz-adv-x="1024" />

    
    <glyph glyph-name="refresh" unicode="&#59006;" d="M855.04 212.48000000000002c-12.8 7.68-28.16 2.56-35.84-7.68-58.88-99.84-168.96-161.28-286.72-161.28-184.32 0-332.8 148.48-332.8 332.8s148.48 332.8 332.8 332.8c94.72 0 181.76-40.96 245.76-110.08l-135.68 17.92c-15.36 2.56-25.6-7.68-28.16-23.04-2.56-12.8 7.68-25.6 23.04-28.16l184.32-23.04h2.56c12.8 0 23.04 10.24 25.6 23.04l23.04 184.32c2.56 12.8-7.68 25.6-23.04 28.16-15.36 2.56-25.6-7.68-28.16-23.04l-15.36-112.64C737.28 716.8 637.44 760.3199999999999 532.48 760.3199999999999c-212.48 0-384-171.52-384-384s171.52-384 384-384c133.12 0 261.12 71.68 330.24 186.88 7.68 10.24 2.56 28.16-7.68 33.28z"  horiz-adv-x="1024" />

    
    <glyph glyph-name="cellphone" unicode="&#59007;" d="M512 102.39999999999998m-51.2 0a51.2 51.2 0 1 1 102.4 0 51.2 51.2 0 1 1-102.4 0ZM332.8 179.20000000000005h358.4V640H332.8v-460.8z m51.2 409.6h256v-358.4H384V588.8zM729.6 793.6h-435.2C258.56 793.6 230.4 760.3199999999999 230.4 716.8v-665.6c0-40.96 28.16-76.8 64-76.8h435.2c35.84 0 64 33.28 64 76.8V716.8c0 43.52-28.16 76.8-64 76.8z m12.8-742.4c0-15.36-10.24-25.6-12.8-25.6h-435.2c-2.56 0-12.8 7.68-12.8 25.6V716.8c0 15.36 10.24 25.6 12.8 25.6h435.2c2.56 0 12.8-7.68 12.8-25.6v-665.6zM435.2 665.6h153.6c12.8 0 25.6 10.24 25.6 25.6 0 12.8-10.24 25.6-25.6 25.6h-153.6c-12.8 0-25.6-10.24-25.6-25.6 0-12.8 10.24-25.6 25.6-25.6z"  horiz-adv-x="1024" />

    
    <glyph glyph-name="search" unicode="&#59008;" d="M916.945455 44.218181999999956l-109.381819 109.381818c-2.327273 2.327273-6.981818 4.654545-9.309091 6.981818C851.781818 228.072727 884.363636 314.181818 884.363636 407.272727c0 218.763636-176.872727 395.636364-395.636363 395.636364S93.090909 626.036364 93.090909 407.272727s176.872727-395.636364 395.636364-395.636363c93.090909 0 179.2 32.581818 246.690909 86.109091 2.327273-2.327273 4.654545-6.981818 6.981818-9.309091l109.381818-109.381819c18.618182-18.618182 46.545455-18.618182 65.163637 0 18.618182 18.618182 18.618182 48.872727 0 65.163637zM488.727273 104.72727299999997c-167.563636 0-302.545455 134.981818-302.545455 302.545454S321.163636 709.818182 488.727273 709.818182s302.545455-134.981818 302.545454-302.545455-134.981818-302.545455-302.545454-302.545454z"  horiz-adv-x="1024" />

    
    <glyph glyph-name="added" unicode="&#59009;" d="M691.2 409.6h-153.6v153.6c0 15.36-10.24 25.6-25.6 25.6s-25.6-10.24-25.6-25.6v-153.6h-153.6c-15.36 0-25.6-10.24-25.6-25.6s10.24-25.6 25.6-25.6h153.6v-153.6c0-15.36 10.24-25.6 25.6-25.6s25.6 10.24 25.6 25.6v153.6h153.6c15.36 0 25.6 10.24 25.6 25.6s-10.24 25.6-25.6 25.6zM512 793.6C286.72 793.6 102.4 609.28 102.4 384s184.32-409.6 409.6-409.6 409.6 184.32 409.6 409.6S737.28 793.6 512 793.6z m0-768c-197.12 0-358.4 161.28-358.4 358.4S314.88 742.4 512 742.4s358.4-161.28 358.4-358.4-161.28-358.4-358.4-358.4z"  horiz-adv-x="1024" />

    
    <glyph glyph-name="modify" unicode="&#59010;" d="M353.28 199.67999999999995l179.2 38.4L857.6 563.2c20.48 20.48 20.48 51.2 0 71.68l-71.68 71.68c-10.24 10.24-23.04 15.36-35.84 15.36s-25.6-5.12-35.84-15.36L386.56 381.44000000000005l-33.28-181.76z m76.8 138.24l58.88-58.88-71.68-15.36 12.8 74.24z m76.8-53.76l25.6 25.6-71.68 71.68 217.6 217.6 71.68-71.68-243.2-243.2z m243.2 386.56l71.68-71.68-35.84-35.84-71.68 71.68 35.84 35.84zM842.24 478.72c-15.36 0-25.6-10.24-25.6-25.6v-307.2c0-38.4-30.72-69.12-69.12-69.12H271.36c-38.4 0-69.12 30.72-69.12 69.12V622.0799999999999C202.24 660.48 232.96 691.2 271.36 691.2h332.8c15.36 0 25.6 10.24 25.6 25.6s-10.24 25.6-25.6 25.6h-332.8C204.8 742.4 151.04 688.64 151.04 622.0799999999999v-476.16c0-66.56 53.76-120.32 120.32-120.32h476.16c66.56 0 120.32 53.76 120.32 120.32v307.2c0 15.36-10.24 25.6-25.6 25.6z"  horiz-adv-x="1024" />

    
    <glyph glyph-name="dropdown" unicode="&#59011;" d="M908.8 570.88c-10.24 10.24-25.6 10.24-35.84 0L537.6 240.64 204.8 570.88c-10.24 10.24-25.6 10.24-35.84 0-10.24-10.24-10.24-25.6 0-35.84l350.72-348.16c5.12-5.12 10.24-7.68 17.92-7.68s12.8 2.56 17.92 7.68l350.72 348.16c12.8 10.24 12.8 25.6 2.56 35.84z"  horiz-adv-x="1024" />

    
    <glyph glyph-name="see" unicode="&#59012;" d="M512 716.8C258.56 716.8 51.2 384 51.2 384s207.36-332.8 460.8-332.8 460.8 332.8 460.8 332.8S765.44 716.8 512 716.8z m0-614.4c-181.76 0-345.6 207.36-399.36 281.6C166.4 458.24 330.24 665.6 512 665.6s345.6-207.36 399.36-281.6c-53.76-74.24-217.6-281.6-399.36-281.6zM512 563.2c-99.84 0-179.2-79.36-179.2-179.2s79.36-179.2 179.2-179.2 179.2 79.36 179.2 179.2-79.36 179.2-179.2 179.2z m0-307.2c-71.68 0-128 56.32-128 128s56.32 128 128 128 128-56.32 128-128-56.32-128-128-128z"  horiz-adv-x="1024" />

    
    <glyph glyph-name="store" unicode="&#59013;" d="M819.2 273.91999999999996c-20.48 0-38.4-17.92-38.4-38.4v-163.84s-2.56-2.56-10.24-2.56H250.88c-5.12 0-7.68 2.56-7.68 2.56v163.84c0 20.48-17.92 38.4-38.4 38.4s-38.4-17.92-38.4-38.4v-163.84c0-43.52 38.4-79.36 84.48-79.36h519.68c46.08 0 84.48 35.84 84.48 79.36v163.84c2.56 23.04-15.36 38.4-35.84 38.4zM921.6 435.2l-51.2 145.92c0 33.28-23.04 58.88-51.2 58.88H204.8c-28.16 0-51.2-25.6-51.2-58.88L102.4 435.2c0-56.32 46.08-102.4 102.4-102.4s102.4 46.08 102.4 102.4c0-56.32 46.08-102.4 102.4-102.4s102.4 46.08 102.4 102.4c0-56.32 46.08-102.4 102.4-102.4s102.4 46.08 102.4 102.4c0-56.32 46.08-102.4 102.4-102.4s102.4 46.08 102.4 102.4zM220.16 663.04h609.28c20.48 0 38.4 17.92 38.4 38.4v2.56c0 20.48-17.92 38.4-38.4 38.4H220.16c-20.48 0-38.4-17.92-38.4-38.4v-2.56c0-20.48 17.92-38.4 38.4-38.4z"  horiz-adv-x="1024" />

    
    <glyph glyph-name="delete" unicode="&#59018;" d="M660.48 148.48000000000002c10.24-10.24 25.6-10.24 35.84 0l199.68 199.68 199.68-199.68c10.24-10.24 25.6-10.24 35.84 0 10.24 10.24 10.24 25.6 0 35.84L931.84 384l199.68 199.68c10.24 10.24 10.24 25.6 0 35.84s-25.6 10.24-35.84 0L896 419.84l-199.68 199.68c-10.24 10.24-25.6 10.24-35.84 0-10.24-10.24-10.24-25.6 0-35.84l199.68-199.68-199.68-199.68c-10.24-10.24-10.24-25.6 0-35.84zM1536 896H409.6c-15.36 0-30.72-7.68-40.96-20.48l-358.4-486.4c-12.8-17.92-12.8-46.08 2.56-64l358.4-435.2c10.24-12.8 23.04-17.92 38.4-17.92h1126.4c28.16 0 51.2 23.04 51.2 51.2V844.8c0 28.16-23.04 51.2-51.2 51.2z m0-972.8H409.6L51.2 358.4 409.6 844.8h1126.4v-921.6z"  horiz-adv-x="1587" />

    
    <glyph glyph-name="stock" unicode="&#59019;" d="M509.44 248.32000000000005c-10.24-10.24-10.24-25.6 0-35.84 5.12-5.12 10.24-7.68 17.92-7.68 7.68 0 12.8 2.56 17.92 7.68l163.84 153.6c5.12 5.12 7.68 10.24 7.68 17.92s-2.56 12.8-7.68 17.92l-163.84 153.6c-10.24 10.24-25.6 10.24-35.84 0s-10.24-25.6 0-35.84l143.36-135.68-143.36-135.68zM371.2 519.6800000000001l143.36-135.68-145.92-135.68c-10.24-10.24-10.24-25.6 0-35.84 5.12-5.12 10.24-7.68 17.92-7.68 7.68 0 12.8 2.56 17.92 7.68l163.84 153.6c5.12 5.12 7.68 12.8 7.68 17.92s-2.56 12.8-7.68 17.92l-163.84 153.6c-10.24 10.24-25.6 10.24-35.84 0s-7.68-28.16 2.56-35.84zM102.4 691.2v-614.4c0-56.32 46.08-102.4 102.4-102.4h614.4c56.32 0 102.4 46.08 102.4 102.4V691.2c0 56.32-46.08 102.4-102.4 102.4H204.8C148.48 793.6 102.4 747.52 102.4 691.2z m128-307.2c0 156.16 125.44 281.6 281.6 281.6s281.6-125.44 281.6-281.6-125.44-281.6-281.6-281.6S230.4 227.84000000000003 230.4 384z"  horiz-adv-x="1024" />

    
    <glyph glyph-name="failure" unicode="&#59020;" d="M512 870.4C243.2 870.4 25.6 652.8 25.6 384s217.6-486.4 486.4-486.4 486.4 217.6 486.4 486.4S780.8 870.4 512 870.4z m217.6-652.8c15.36-15.36 15.36-38.4 0-53.76-15.36-15.36-38.4-15.36-53.76 0L512 332.79999999999995l-166.4-166.4c-15.36-15.36-38.4-15.36-53.76 0-15.36 15.36-15.36 38.4 0 53.76l166.4 166.4-166.4 166.4c-15.36 15.36-15.36 38.4 0 53.76 15.36 15.36 38.4 15.36 53.76 0l166.4-166.4 166.4 166.4c15.36 15.36 38.4 15.36 53.76 0 15.36-15.36 15.36-38.4 0-53.76L563.2 384l166.4-166.4z"  horiz-adv-x="1024" />

    
    <glyph glyph-name="img" unicode="&#59021;" d="M870.4 768H153.6C97.28 768 51.2 721.92 51.2 665.6v-588.8c0-56.32 46.08-102.4 102.4-102.4h716.8c56.32 0 102.4 46.08 102.4 102.4V665.6c0 56.32-46.08 102.4-102.4 102.4z m-102.4-128c56.32 0 102.4-46.08 102.4-102.4s-46.08-102.4-102.4-102.4-102.4 46.08-102.4 102.4 46.08 102.4 102.4 102.4zM128 51.200000000000045l256 332.8 204.8-204.8 153.6 102.4 153.6-230.4H128z"  horiz-adv-x="1024" />

    
    <glyph glyph-name="success" unicode="&#59025;" d="M512 870.4C243.2 870.4 25.6 652.8 25.6 384s217.6-486.4 486.4-486.4 486.4 217.6 486.4 486.4S780.8 870.4 512 870.4z m284.16-358.4L478.72 179.20000000000005c-7.68-7.68-17.92-12.8-28.16-12.8s-20.48 5.12-28.16 12.8l-194.56 204.8c-15.36 15.36-12.8 38.4 2.56 53.76 15.36 15.36 38.4 12.8 53.76-2.56l166.4-176.64L739.84 563.2c15.36 15.36 38.4 15.36 53.76 2.56 15.36-15.36 17.92-38.4 2.56-53.76z"  horiz-adv-x="1024" />

    
    <glyph glyph-name="share" unicode="&#59027;" d="M972.8 640l-166.4 166.4c-15.36 15.36-38.4 15.36-53.76 0s-15.36-38.4 0-53.76l76.8-76.8c-110.080 10.24-197.12-35.84-250.88-76.8-79.36-61.44-138.24-156.16-140.8-225.28 0-20.48 15.36-38.4 35.84-40.96h2.56c20.48 0 38.4 15.36 38.4 35.84 2.56 35.84 35.84 110.080 110.080 168.96 48.64 38.4 128 79.36 235.52 56.32h10.24l-120.32-120.32c-15.36-15.36-15.36-38.4 0-53.76 7.68-7.68 17.92-10.24 28.16-10.24s20.48 2.56 28.16 10.24l166.4 166.4c15.36 12.8 15.36 38.4 0 53.76zM860.16 253.44c-20.48 0-38.4-17.92-38.4-38.4v-207.36c0-5.12-2.56-7.68-7.68-7.68h-655.36c-5.12 0-7.68 2.56-7.68 7.68v727.040c0 5.12 2.56 7.68 7.68 7.68h327.68c20.48 0 38.4 17.92 38.4 38.4s-17.92 38.4-38.4 38.4h-327.68c-46.080 0-84.48-38.4-84.48-84.48v-724.48c0-46.080 38.4-84.48 84.48-84.48h655.36c46.080 0 84.48 38.4 84.48 84.48v207.36c0 17.92-15.36 35.84-38.4 35.84z"  horiz-adv-x="1024" />

    
    <glyph glyph-name="help" unicode="&#59028;" d="M512 793.6c-225.28 0-409.6-184.32-409.6-409.6s184.32-409.6 409.6-409.6 409.6 184.32 409.6 409.6-184.32 409.6-409.6 409.6zM512 25.6c-197.12 0-358.4 161.28-358.4 358.4s161.28 358.4 358.4 358.4 358.4-161.28 358.4-358.4-161.28-358.4-358.4-358.4zM509.44 284.16c-7.68 0-12.8-2.56-17.92-7.68s-7.68-10.24-7.68-17.92 2.56-12.8 7.68-17.92c5.12-5.12 10.24-7.68 17.92-7.68 7.68 0 12.8 2.56 17.92 7.68 5.12 5.12 7.68 10.24 7.68 17.92 0 7.68-2.56 12.8-7.68 17.92-5.12 5.12-10.24 7.68-17.92 7.68zM514.56 532.48c-30.72 0-51.2-10.24-69.12-28.16-15.36-17.92-23.040-40.96-23.040-69.12h33.28c0 20.48 5.12 35.84 12.8 46.080 10.24 12.8 25.6 20.48 46.080 20.48 17.92 0 30.72-5.12 40.96-15.36 10.24-10.24 12.8-23.040 12.8-38.4 0-10.24-5.12-23.040-12.8-33.28-2.56-2.56-5.12-7.68-12.8-15.36-23.040-20.48-35.84-35.84-40.96-48.64-5.12-10.24-7.68-23.040-7.68-35.84v-10.24h33.28v10.24c0 10.24 2.56 20.48 7.68 30.72 5.12 7.68 10.24 15.36 20.48 23.040 17.92 15.36 28.16 25.6 33.28 30.72 10.24 12.8 15.36 30.72 15.36 48.64 0 25.6-7.68 43.52-23.040 58.88-17.92 17.92-38.4 25.6-66.56 25.6z"  horiz-adv-x="1024" />

    
    <glyph glyph-name="understand" unicode="&#59029;" d="M640 371.2c0-0 0-0 0-0 0-21.208 17.192-38.4 38.4-38.4 21.208 0 38.4 17.192 38.4 38.4 0 0 0 0 0 0 0 0 0 0 0 0 0 21.208-17.192 38.4-38.4 38.4-21.208 0-38.4-17.192-38.4-38.4 0-0 0-0 0-0zM460.8 371.2c0-21.208 17.192-38.4 38.4-38.4s38.4 17.192 38.4 38.4c0 0 0 0 0 0 0 21.208-17.192 38.4-38.4 38.4-21.208 0-38.4-17.192-38.4-38.4 0-0 0-0 0-0zM281.6 371.2c0-21.208 17.192-38.4 38.4-38.4s38.4 17.192 38.4 38.4c0 0 0 0 0 0 0 21.208-17.192 38.4-38.4 38.4-21.208 0-38.4-17.192-38.4-38.4 0-0 0-0 0-0zM512 793.6c-225.28 0-409.6-184.32-409.6-409.6s184.32-409.6 409.6-409.6 409.6 184.32 409.6 409.6-184.32 409.6-409.6 409.6zM512 25.6c-197.12 0-358.4 161.28-358.4 358.4s161.28 358.4 358.4 358.4 358.4-161.28 358.4-358.4-161.28-358.4-358.4-358.4z"  horiz-adv-x="1024" />

    
    <glyph glyph-name="client" unicode="&#59030;" d="M143.36 649.4208a20.48 20.48 0 0 0-40.96 0V793.6c0 33.83296 26.95168 61.44 60.45696 61.44h759.72608C956.08832 855.04 983.04 827.43296 983.04 793.6v-819.2a61.44 61.44 0 0 0-61.44-61.44H162.85696C129.35168-87.03999999999996 102.4-59.43295999999998 102.4-25.600000000000023v141.37344a20.48 20.48 0 0 0 40.96 0V-25.600000000000023c0-11.42784 8.84736-20.48 19.49696-20.48H921.6a20.48 20.48 0 0 1 20.48 20.48V793.6c0 11.42784-8.84736 20.48-19.49696 20.48H162.85696C152.20736 814.08 143.36 805.02784 143.36 793.6v-144.1792z m0-348.9792a20.48 20.48 0 0 0-40.96 0V463.872a20.48 20.48 0 0 0 40.96 0v-163.4304zM286.72 834.56v-901.12V834.56z m0 20.48a20.48 20.48 0 0 0 20.48-20.48v-901.12a20.48 20.48 0 0 0-40.96 0V834.56a20.48 20.48 0 0 0 20.48 20.48zM634.88 343.03999999999996a163.84 163.84 0 1 0 0 327.68 163.84 163.84 0 0 0 0-327.68z m0 40.96a122.88 122.88 0 1 1 0 245.76 122.88 122.88 0 0 1 0-245.76zM901.12 117.75999999999999a20.48 20.48 0 0 0-40.96 0c0 83.29216-115.83488 184.32-225.28 184.32s-225.28-101.02784-225.28-184.32a20.48 20.48 0 0 0-40.96 0c0 107.25376 135.31136 225.28 266.24 225.28s266.24-118.02624 266.24-225.28zM61.44 568.3199999999999h122.88-122.88z m0 20.48h122.88a20.48 20.48 0 0 0 0-40.96H61.44a20.48 20.48 0 0 0 0 40.96zM61.44 199.67999999999995h122.88-122.88z m0 20.48h122.88a20.48 20.48 0 0 0 0-40.96H61.44a20.48 20.48 0 0 0 0 40.96z"  horiz-adv-x="1024" />

    
    <glyph glyph-name="cleared" unicode="&#59031;" d="M819.2 537.6H588.8V691.2c0 43.52-33.28 76.8-76.8 76.8s-76.8-33.28-76.8-76.8v-153.6H204.8c-28.16 0-51.2-23.04-51.2-51.2v-76.8c0-28.16 23.04-51.2 51.2-51.2V0h614.4V358.4c28.16 0 51.2 23.04 51.2 51.2v76.8c0 28.16-23.04 51.2-51.2 51.2zM768 51.200000000000045H665.6V204.79999999999995h-51.2v-153.6h-76.8V204.79999999999995h-51.2v-153.6h-76.8V204.79999999999995h-51.2v-153.6H256V358.4h512v-307.2z m51.2 358.4H204.8v76.8h281.6V691.2c0 15.36 10.24 25.6 25.6 25.6s25.6-10.24 25.6-25.6v-204.8h281.6v-76.8z"  horiz-adv-x="1024" />

    
    <glyph glyph-name="classification1" unicode="&#59032;" d="M755.2 345.6h-128c-43.52 0-76.8-33.28-76.8-76.8v-128c0-43.52 33.28-76.8 76.8-76.8h128c43.52 0 76.8 33.28 76.8 76.8v128c0 43.52-33.28 76.8-76.8 76.8z m25.6-204.8c0-15.36-10.24-25.6-25.6-25.6h-128c-15.36 0-25.6 10.24-25.6 25.6v128c0 15.36 10.24 25.6 25.6 25.6h128c15.36 0 25.6-10.24 25.6-25.6v-128z m-384 204.8h-128c-43.52 0-76.8-33.28-76.8-76.8v-128c0-43.52 33.28-76.8 76.8-76.8h128c43.52 0 76.8 33.28 76.8 76.8v128c0 43.52-33.28 76.8-76.8 76.8z m25.6-204.8c0-15.36-10.24-25.6-25.6-25.6h-128c-15.36 0-25.6 10.24-25.6 25.6v128c0 15.36 10.24 25.6 25.6 25.6h128c15.36 0 25.6-10.24 25.6-25.6v-128zM755.2 704h-128c-43.52 0-76.8-33.28-76.8-76.8v-128c0-43.52 33.28-76.8 76.8-76.8h128c43.52 0 76.8 33.28 76.8 76.8v128c0 43.52-33.28 76.8-76.8 76.8z m25.6-204.8c0-15.36-10.24-25.6-25.6-25.6h-128c-15.36 0-25.6 10.24-25.6 25.6v128c0 15.36 10.24 25.6 25.6 25.6h128c15.36 0 25.6-10.24 25.6-25.6v-128zM396.8 704h-128c-43.52 0-76.8-33.28-76.8-76.8v-128c0-43.52 33.28-76.8 76.8-76.8h128c43.52 0 76.8 33.28 76.8 76.8v128c0 43.52-33.28 76.8-76.8 76.8z m25.6-204.8c0-15.36-10.24-25.6-25.6-25.6h-128c-15.36 0-25.6 10.24-25.6 25.6v128c0 15.36 10.24 25.6 25.6 25.6h128c15.36 0 25.6-10.24 25.6-25.6v-128z"  horiz-adv-x="1024" />

    
    <glyph glyph-name="commodity1" unicode="&#59033;" d="M793.6 601.6h-79.36c-25.6 89.6-104.96 153.6-202.24 153.6s-176.64-64-202.24-153.6h-79.36c-43.52 0-76.8-33.28-76.8-76.8v-435.2c0-43.52 33.28-76.8 76.8-76.8h563.2c43.52 0 76.8 33.28 76.8 76.8v435.2c0 43.52-33.28 76.8-76.8 76.8zM512 704c66.56 0 125.44-43.52 148.48-102.4h-296.96c23.040 58.88 81.92 102.4 148.48 102.4zM819.2 89.6c0-15.36-10.24-25.6-25.6-25.6h-563.2c-15.36 0-25.6 10.24-25.6 25.6v435.2c0 15.36 10.24 25.6 25.6 25.6h71.68v-102.4c0-15.36 10.24-25.6 25.6-25.6s25.6 10.24 25.6 25.6v102.4h317.44v-102.4c0-15.36 10.24-25.6 25.6-25.6s25.6 10.24 25.6 25.6v102.4h71.68c15.36 0 25.6-10.24 25.6-25.6v-435.2z"  horiz-adv-x="1024" />

    
    <glyph glyph-name="notification" unicode="&#59034;" d="M768 634.88c-12.8 7.68-28.16 2.56-35.84-7.68-7.68-12.8-2.56-28.16 7.68-35.84 53.76-33.28 89.6-117.76 89.6-207.36s-35.84-174.080-89.6-207.36c-12.8-7.68-15.36-23.040-7.68-35.84 5.12-7.68 12.8-12.8 20.48-12.8 5.12 0 10.24 0 12.8 5.12 69.12 43.52 115.2 143.36 115.2 250.88 2.56 110.080-43.52 207.36-112.64 250.88zM678.4 540.16c-12.8 7.68-28.16 2.56-35.84-10.24-7.68-12.8-2.56-28.16 10.24-35.84 30.72-17.92 51.2-61.44 51.2-112.64s-20.48-94.72-51.2-112.64c-12.8-7.68-15.36-23.040-10.24-35.84 5.12-7.68 12.8-12.8 23.040-12.8 5.12 0 7.68 0 12.8 2.56 48.64 28.16 76.8 89.6 76.8 156.16s-30.72 133.12-76.8 161.28zM545.28 762.88c-5.12 2.56-12.8 5.12-20.48 5.12-12.8 0-23.040-5.12-33.28-12.8l-163.84-140.8h-84.48c-53.76 0-102.4-46.080-102.4-97.28v-266.24c0-51.2 48.64-97.28 102.4-97.28h84.48l163.84-140.8c10.24-7.68 20.48-12.8 33.28-12.8 7.68 0 15.36 2.56 20.48 5.12 17.92 7.68 30.72 25.6 30.72 46.080v665.6c0 20.48-12.8 38.4-30.72 46.080zM524.8 51.2l-179.2 153.6h-102.4c-25.6 0-51.2 20.48-51.2 46.080v266.24c0 25.6 25.6 46.080 51.2 46.080h102.4l179.2 153.6v-665.6z"  horiz-adv-x="1024" />

    
    <glyph glyph-name="safety" unicode="&#59035;" d="M683.52 519.6800000000001l-217.6-217.6-128 128c-10.24 10.24-25.6 10.24-35.84 0s-10.24-25.6 0-35.84l145.92-145.92c5.12-5.12 12.8-7.68 17.92-7.68s12.8 2.56 17.92 7.68l235.52 235.52c10.24 10.24 10.24 25.6 0 35.84s-25.6 10.24-35.84 0zM890.88 721.92c-25.6-10.24-58.88-17.92-97.28-17.92-35.84 0-76.8 5.12-117.76 15.36-61.44 15.36-115.2 43.52-151.04 71.68h-20.48c-35.84-30.72-89.6-56.32-151.04-71.68-46.08-10.24-87.04-15.36-122.88-15.36-38.4 0-71.68 5.12-97.28 17.92C130.56 693.76 128 668.16 128 640c0-384 281.6-665.6 384-665.6s384 281.6 384 665.6c0 28.16-2.56 53.76-5.12 81.92zM512 25.600000000000023c-64 0-332.8 245.76-332.8 614.4v15.36c15.36-2.56 33.28-2.56 51.2-2.56 40.96 0 87.04 5.12 133.12 17.92 56.32 15.36 107.52 38.4 148.48 66.56 40.96-28.16 92.16-51.2 148.48-66.56 43.52-12.8 89.6-17.92 133.12-17.92 17.92 0 35.84 0 51.2 2.56v-15.36c0-368.64-268.8-614.4-332.8-614.4z"  horiz-adv-x="1024" />

    
    <glyph glyph-name="information" unicode="&#59038;" d="M768 716.8h-512c-56.32 0-102.4-46.080-102.4-102.4v-460.8c0-56.32 46.080-102.4 102.4-102.4h512c56.32 0 102.4 46.080 102.4 102.4v460.8c0 56.32-46.080 102.4-102.4 102.4zM256 665.6h512c17.92 0 33.28-7.68 40.96-23.040l-289.28-322.56c-2.56-2.56-5.12-5.12-7.68-5.12s-5.12 2.56-7.68 5.12l-289.28 322.56c7.68 15.36 23.040 23.040 40.96 23.040zM768 102.4h-512c-28.16 0-51.2 23.040-51.2 51.2v424.96l261.12-289.28c12.8-12.8 28.16-20.48 46.080-20.48s33.28 7.68 46.080 20.48l261.12 289.28v-424.96c0-28.16-23.040-51.2-51.2-51.2z"  horiz-adv-x="1024" />

    
    <glyph glyph-name="selected1" unicode="&#59039;" d="M768 742.4H256c-56.32 0-102.4-46.08-102.4-102.4v-512c0-56.32 46.08-102.4 102.4-102.4h512c56.32 0 102.4 46.08 102.4 102.4V640c0 56.32-46.08 102.4-102.4 102.4z m43.52-240.64L473.6 153.60000000000002c-7.68-7.68-17.92-12.8-28.16-12.8s-20.48 5.12-28.16 12.8l-204.8 212.48c-15.36 15.36-15.36 38.4 0 53.76 15.36 15.36 38.4 15.36 53.76 0l176.64-184.32 309.76 320c15.36 15.36 38.4 15.36 53.76 0 17.92-15.36 17.92-38.4 5.12-53.76z"  horiz-adv-x="1024" />

    
    <glyph glyph-name="unselected" unicode="&#59043;" d="M768 691.2c28.16 0 51.2-23.04 51.2-51.2v-512c0-28.16-23.04-51.2-51.2-51.2H256c-28.16 0-51.2 23.04-51.2 51.2V640c0 28.16 23.04 51.2 51.2 51.2h512m0 51.2H256c-56.32 0-102.4-46.08-102.4-102.4v-512c0-56.32 46.08-102.4 102.4-102.4h512c56.32 0 102.4 46.08 102.4 102.4V640c0 56.32-46.08 102.4-102.4 102.4z"  horiz-adv-x="1024" />

    
    <glyph glyph-name="logol" unicode="&#59044;" d="M629.76 823.296c-166.912 95.232-371.712-36.864-351.232-226.304 11.264-100.352-45.056-196.608-138.24-237.568C-35.84 281.6-49.152 39.936 117.76-55.296s371.712 36.864 351.232 226.304c-11.264 100.352 45.056 196.608 138.24 237.568C783.36 486.4 795.648 728.064 629.76 823.296z m-61.44-327.68C437.248 438.272 358.4 302.08 373.76 160.768c12.288-111.616-109.568-190.464-207.872-134.144-98.304 56.32-91.136 199.68 13.312 245.76C310.272 329.728 389.12 465.92 373.76 607.232 361.472 718.848 483.328 797.696 581.632 741.376c98.304-56.32 91.136-199.68-13.312-245.76zM1015.808 206.848C982.016 330.752 852.992 404.48 728.064 371.712 603.136 337.92 528.384 209.92 562.176 86.016 595.968-37.888 723.968-111.616 849.92-78.848c124.928 33.792 199.68 160.768 165.888 285.696zM825.344 13.312c-73.728-19.456-150.528 23.552-169.984 97.28-19.456 73.728 24.576 149.504 98.304 168.96 73.728 19.456 150.528-23.552 169.984-97.28 19.456-73.728-24.576-149.504-98.304-168.96zM799.744 105.472c22.528 6.144 36.864 29.696 30.72 52.224-6.144 22.528-29.696 35.84-53.248 30.72-22.528-6.144-36.864-29.696-30.72-52.224 7.168-23.552 30.72-36.864 53.248-30.72z"  horiz-adv-x="1024" />

    
    <glyph glyph-name="filter1" unicode="&#59045;" d="M960 76.8h-230.4c-20.48 0-38.4-17.92-38.4-38.4s17.92-38.4 38.4-38.4h230.4c20.48 0 38.4 17.92 38.4 38.4s-17.92 38.4-38.4 38.4zM960 230.4h-230.4c-20.48 0-38.4-17.92-38.4-38.4s17.92-38.4 38.4-38.4h230.4c20.48 0 38.4 17.92 38.4 38.4s-17.92 38.4-38.4 38.4zM691.2 345.6c0-20.48 17.92-38.4 38.4-38.4h230.4c20.48 0 38.4 17.92 38.4 38.4s-17.92 38.4-38.4 38.4h-230.4c-20.48 0-38.4-17.92-38.4-38.4zM844.8 716.8c0 76.8-56.32 140.8-125.44 140.8h-517.12c-69.12 0-125.44-64-125.44-140.8 0-7.68 2.56-15.36 7.68-20.48l209.92-304.64v-366.080c0-20.48 17.92-38.4 38.4-38.4s38.4 17.92 38.4 38.4v376.32c0 7.68-2.56 15.36-7.68 20.48l-209.92 304.64c5.12 30.72 25.6 53.76 48.64 53.76h519.68c23.040 0 43.52-23.040 46.080-53.76l-207.36-304.64c-5.12-5.12-7.68-12.8-7.68-20.48v-478.72c0-20.48 17.92-38.4 38.4-38.4s38.4 17.92 38.4 38.4v465.92l209.92 304.64c2.56 7.68 5.12 15.36 5.12 23.040z"  horiz-adv-x="1024" />

    
    <glyph glyph-name="preserve" unicode="&#59046;" d="M614.4 563.2c15.36 0 25.6 10.24 25.6 25.6V665.6c0 15.36-10.24 25.6-25.6 25.6s-25.6-10.24-25.6-25.6v-76.8c0-15.36 10.24-25.6 25.6-25.6zM844.8 819.2H179.2C122.88 819.2 76.8 773.12 76.8 716.8v-691.2c0-56.32 46.08-102.4 102.4-102.4h665.6c56.32 0 102.4 46.08 102.4 102.4V716.8c0 56.32-46.08 102.4-102.4 102.4z m-153.6-76.8v-230.4H332.8V742.4h358.4z m179.2-716.8c0-15.36-10.24-25.6-25.6-25.6H179.2c-15.36 0-25.6 10.24-25.6 25.6V716.8c0 15.36 10.24 25.6 25.6 25.6h76.8v-307.2h512V742.4h76.8c15.36 0 25.6-10.24 25.6-25.6v-691.2z"  horiz-adv-x="1024" />

    
    <glyph glyph-name="rise" unicode="&#59041;" d="M734.72 419.84l-204.8 212.48c-10.24 10.24-28.16 10.24-35.84 0l-204.8-212.48c-10.24-10.24-10.24-25.6 0-35.84 10.24-10.24 25.6-10.24 35.84 0l161.28 166.4V153.60000000000002c0-15.36 10.24-25.6 25.6-25.6s25.6 10.24 25.6 25.6V550.4l161.28-166.4c5.12-5.12 12.8-7.68 17.92-7.68 5.12 0 12.8 2.56 17.92 7.68 10.24 7.68 10.24 25.6 0 35.84z"  horiz-adv-x="1024" />

    
    <glyph glyph-name="decline" unicode="&#59042;" d="M734.72 348.15999999999997l-204.8-212.48c-10.24-10.24-28.16-10.24-35.84 0l-204.8 212.48c-10.24 10.24-10.24 25.6 0 35.84 10.24 10.24 25.6 10.24 35.84 0l161.28-166.4V614.4c0 15.36 10.24 25.6 25.6 25.6s25.6-10.24 25.6-25.6v-396.8l161.28 166.4c5.12 5.12 12.8 7.68 17.92 7.68 5.12 0 12.8-2.56 17.92-7.68 10.24-7.68 10.24-25.6 0-35.84z"  horiz-adv-x="1024" />

    
    <glyph glyph-name="reject" unicode="&#59047;" d="M517.12 476.16H691.2V358.4h-174.08zM153.6 742.4v-716.8h716.8V742.4H153.6z m299.52-330.24c-25.6-12.8-51.2-23.04-71.68-33.28v-161.28c0-30.72-12.8-43.52-40.96-43.52h-48.64l-7.68 28.16c20.48-2.56 35.84-2.56 43.52-2.56 15.36 0 23.04 7.68 23.04 25.6v143.36c-30.72-10.24-58.88-20.48-81.92-25.6l-7.68 28.16c33.28 7.68 61.44 17.92 89.6 28.16v130.56h-76.8v28.16h76.8V655.36h28.16v-99.84h69.12v-28.16h-69.12v-120.32c25.6 10.24 48.64 20.48 71.68 33.28v-28.16z m304.64-230.4H488.96V634.88h258.56v-28.16h-230.4v-102.4h202.24v-174.08h-202.24v-117.76h240.64v-30.72z"  horiz-adv-x="1024" />

    
    <glyph glyph-name="receipt" unicode="&#59048;" d="M555.52 542.72l-12.8-33.28c17.92-71.68 46.08-130.56 79.36-181.76 33.28 58.88 48.64 130.56 51.2 215.04h-117.76zM153.6 742.4v-716.8h716.8v716.8h-716.8z m289.28-568.32h-28.16v145.92c-40.96-15.36-79.36-28.16-117.76-38.4l-7.68 25.6c7.68 2.56 12.8 7.68 12.8 15.36v271.36h28.16v-276.48c30.72 10.24 58.88 17.92 84.48 30.72v312.32h28.16v-486.4z m302.08-2.56c-46.08 25.6-87.04 64-120.32 110.08-33.28-46.08-76.8-81.92-130.56-107.52l-17.92 23.04c56.32 25.6 99.84 61.44 133.12 107.52-30.72 48.64-56.32 107.52-76.8 174.08-12.8-25.6-25.6-48.64-40.96-69.12l-17.92 23.04c43.52 64 71.68 140.8 87.04 230.4l28.16-2.56c-5.12-33.28-12.8-61.44-20.48-87.04h181.76v-28.16h-46.08c-2.56-97.28-20.48-176.64-61.44-240.64 33.28-46.08 74.24-84.48 122.88-110.08l-20.48-23.04z"  horiz-adv-x="1024" />

    
    <glyph glyph-name="outstock" unicode="&#59049;" d="M691.2 547.8399999999999h-66.56v-46.08c0-28.16-2.56-56.32-5.12-87.04h71.68v133.12zM153.6 742.4v-716.8h716.8v716.8h-716.8z m325.12-547.84h-28.16v25.6l-161.28-20.48v189.44h25.6v-161.28l56.32 7.68v199.68h-99.84v28.16h99.84v104.96h-46.08c-10.24-25.6-20.48-51.2-33.28-71.68l-23.04 15.36c25.6 43.52 43.52 92.16 56.32 148.48l28.16-5.12c-5.12-23.04-10.24-43.52-17.92-58.88h143.36v-28.16h-81.92v-104.96h94.72v-28.16h-94.72v-197.12l51.2 7.68v143.36h28.16v-194.56z m261.12-28.16c-58.88 53.76-99.84 122.88-128 207.36-15.36-94.72-51.2-163.84-107.52-207.36l-17.92 23.04c51.2 40.96 84.48 107.52 97.28 197.12h-76.8v28.16h79.36c2.56 28.16 5.12 53.76 5.12 79.36v51.2h-71.68v28.16h71.68v84.48h28.16v-84.48h94.72v-158.72h35.84v-28.16h-120.32c25.6-81.92 66.56-148.48 125.44-197.12l-15.36-23.04z"  horiz-adv-x="1024" />

    
    <glyph glyph-name="return" unicode="&#59050;" d="M481.28 586.24h194.56v-58.88h-194.56zM153.6 742.4v-716.8h716.8v716.8h-716.8z m591.36-491.52l-17.92-23.04c-48.64 51.2-110.08 99.84-184.32 143.36l15.36 20.48c30.72-17.92 58.88-38.4 87.04-56.32 23.04 17.92 43.52 38.4 61.44 61.44l20.48-15.36c-17.92-23.04-38.4-43.52-61.44-61.44 28.16-20.48 53.76-43.52 79.36-69.12z m-291.84 12.8V611.8399999999999h253.44v-194.56h-225.28v-158.72c38.4 7.68 76.8 15.36 117.76 28.16l7.68-28.16c-43.52-12.8-94.72-23.04-158.72-33.28l-5.12 23.04c7.68 5.12 10.24 10.24 10.24 15.36z m-148.48 360.96c35.84-28.16 66.56-56.32 92.16-84.48l-20.48-20.48c-23.04 28.16-53.76 56.32-92.16 87.04l20.48 17.92z m440.32-471.04h-227.84c-33.28 0-61.44 5.12-79.36 10.24-20.48 7.68-38.4 20.48-53.76 40.96-7.68 10.24-12.8 12.8-20.48 12.8-15.36 0-38.4-25.6-69.12-74.24l-23.04 20.48c30.72 46.08 56.32 74.24 76.8 81.92v171.52h-79.36v28.16h107.52v-202.24c5.12-2.56 10.24-7.68 15.36-15.36 12.8-15.36 28.16-28.16 40.96-35.84 17.92-7.68 40.96-10.24 71.68-10.24H688.64l64 2.56-7.68-30.72zM481.28 501.76h194.56v-56.32h-194.56z"  horiz-adv-x="1024" />

    
    <glyph glyph-name="stock02" unicode="&#59061;" d="M153.6 742.4v-716.8h716.8V742.4H153.6z m199.68-286.72c-2.56-120.32-20.48-215.04-53.76-284.16l-30.72 28.16c30.72 61.44 46.08 145.92 46.08 256v161.28h202.24c-7.68 15.36-17.92 30.72-28.16 43.52l43.52 7.68c10.24-15.36 17.92-33.28 28.16-51.2h194.56v-38.4H353.28v-122.88zM755.2 256h-161.28v-84.48h-38.4V256h-194.56v35.84h194.56v61.44h-140.8l-7.68 30.72c20.48 25.6 38.4 56.32 56.32 94.72h-81.92V512h94.72c5.12 17.92 12.8 33.28 17.92 51.2l35.84-7.68c-2.56-10.24-7.68-25.6-15.36-43.52h209.92v-33.28h-222.72c-15.36-33.28-30.72-64-48.64-92.16h99.84v64h38.4v-64h120.32v-35.84h-120.32v-61.44h161.28V256z"  horiz-adv-x="1024" />

    
    <glyph glyph-name="order" unicode="&#59062;" d="M153.6 742.4v-716.8h716.8V742.4H153.6z m176.64-84.48c35.84-28.16 66.56-56.32 92.16-81.92l-25.6-25.6c-23.04 25.6-53.76 53.76-92.16 84.48l25.6 23.04z m17.92-468.48l-15.36 35.84c7.68 7.68 12.8 15.36 12.8 23.04V460.8h-79.36v35.84H384V256c23.04 17.92 46.08 38.4 66.56 56.32l10.24-40.96c-33.28-28.16-71.68-56.32-112.64-81.92z m412.16 407.04h-112.64v-371.2c0-33.28-17.92-51.2-51.2-51.2h-71.68l-7.68 38.4c25.6-2.56 46.08-2.56 64-2.56 15.36 0 23.04 7.68 23.04 25.6V596.48h-158.72v38.4h312.32v-38.4z"  horiz-adv-x="1024" />

    
    <glyph glyph-name="search02" unicode="&#59063;" d="M888.32 48.639999999999986l-148.48 148.48c51.2 61.44 81.92 138.24 81.92 225.28 0 94.72-38.4 181.76-102.4 245.76s-148.48 102.4-245.76 102.4C284.16 768 128 611.8399999999999 128 419.84c0-94.72 38.4-181.76 102.4-245.76s148.48-102.4 245.76-102.4c84.48 0 163.84 30.72 225.28 81.92l148.48-148.48c10.24-10.24 28.16-10.24 40.96 0 7.68 15.36 7.68 33.28-2.56 43.52z m-412.16 81.92c-76.8 0-151.04 30.72-204.8 84.48s-84.48 128-84.48 204.8c0 158.72 130.56 289.28 289.28 289.28 76.8 0 151.04-30.72 204.8-84.48s84.48-128 84.48-204.8c0-158.72-130.56-289.28-289.28-289.28z"  horiz-adv-x="1024" />

    
    <glyph glyph-name="history" unicode="&#59064;" d="M512 768C299.52 768 128 596.48 128 384s171.52-384 384-384 384 171.52 384 384S724.48 768 512 768z m0-721.92c-186.88 0-337.92 151.04-337.92 337.92S325.12 721.92 512 721.92 849.92 570.88 849.92 384 698.88 46.08000000000004 512 46.08000000000004zM683.52 386.56h-148.48v156.16c0 12.8-10.24 23.04-23.04 23.04s-23.04-10.24-23.04-23.04v-179.2c0-12.8 10.24-23.04 23.04-23.04h171.52c12.8 0 23.04 10.24 23.04 23.04s-10.24 23.04-23.04 23.04z"  horiz-adv-x="1024" />

    
    <glyph glyph-name="print" unicode="&#59065;" d="M860.16 668.16H819.2V750.08c0 56.32-43.52 102.4-97.28 102.4H302.08C248.32 852.48 204.8 806.4 204.8 750.08v-81.92H163.84c-66.56 0-122.88-58.88-122.88-133.12v-317.44c0-74.24 53.76-133.12 122.88-133.12H204.8v-66.56c0-56.32 43.52-102.4 97.28-102.4h417.28c53.76 0 97.28 46.08 97.28 102.4v66.56h40.96c66.56 0 122.88 58.88 122.88 133.12V535.04c2.56 71.68-53.76 133.12-120.32 133.12zM281.6 750.08c0 15.36 10.24 25.6 20.48 25.6h417.28c12.8 0 20.48-10.24 20.48-25.6v-76.8H281.6v76.8z m460.8-732.16c0-15.36-10.24-25.6-20.48-25.6H302.08c-12.8 0-20.48 10.24-20.48 25.6v281.6h460.8v-281.6z m168.96 199.68c0-33.28-23.04-61.44-51.2-61.44H819.2v220.16H204.8v-220.16H163.84c-28.16 0-51.2 28.16-51.2 61.44V535.04c0 33.28 23.04 61.44 51.2 61.44h696.32c28.16 0 51.2-28.16 51.2-61.44v-317.44z"  horiz-adv-x="1024" />

    
    <glyph glyph-name="fresh" unicode="&#59066;" d="M977.92 609.28c-15.36 7.68-33.28 0-40.96-15.36l-30.72-66.56C844.8 704 673.28 826.88 478.72 826.88 230.4 826.88 28.16 629.76 28.16 384S230.4-58.879999999999995 478.72-58.879999999999995c181.76 0 345.6 107.52 414.72 271.36 7.68 17.92 0 38.4-17.92 46.08-17.92 7.68-38.4 0-46.08-17.92-58.88-138.24-197.12-230.4-350.72-230.4-209.92 0-381.44 168.96-381.44 376.32S268.8 760.3199999999999 478.72 760.3199999999999c168.96 0 317.44-110.08 366.08-266.24l-69.12 40.96c-15.36 7.68-33.28 5.12-40.96-10.24-7.68-15.36-5.12-33.28 10.24-40.96l133.12-81.92c5.12-2.56 10.24-5.12 15.36-5.12 2.56 0 5.12 0 10.24 2.56 7.68 2.56 15.36 7.68 17.92 15.36l71.68 153.6c5.12 15.36 0 33.28-15.36 40.96z"  horiz-adv-x="1024" />

    
    <glyph glyph-name="pick" unicode="&#59067;" d="M450.56 381.44000000000005h20.48v102.4h-33.28v-89.6c-2.56-10.24 2.56-12.8 12.8-12.8zM348.16 483.84h-30.72v-179.2h153.6v46.08h-28.16c-23.04 0-33.28 12.8-33.28 35.84V483.84h-33.28v-35.84c0-56.32-12.8-99.84-35.84-125.44l-20.48 17.92c20.48 23.04 28.16 58.88 30.72 107.52V483.84zM373.76 581.12h35.84v-61.44h-35.84zM153.6 742.4v-716.8h716.8v716.8h-716.8z m360.96-161.28h-69.12v-61.44h61.44V151.03999999999996h-33.28v28.16h-153.6v-28.16h-33.28v368.64h58.88v61.44h-71.68v35.84h245.76v-35.84z m222.72-396.8c-10.24-15.36-25.6-25.6-51.2-25.6h-107.52c-25.6 0-38.4 17.92-38.4 51.2v227.84h145.92v143.36h-156.16v35.84h194.56v-217.6h-145.92v-176.64c0-17.92 5.12-28.16 17.92-28.16h84.48c15.36 0 25.6 7.68 28.16 23.04 5.12 12.8 7.68 43.52 7.68 87.04l38.4-12.8c-5.12-56.32-10.24-92.16-17.92-107.52zM317.44 268.79999999999995h153.6v-53.76h-153.6z"  horiz-adv-x="1024" />

    
    <glyph glyph-name="more" unicode="&#59076;" d="M744.727273 384c0-51.2 41.890909-93.090909 93.090909-93.090909s93.090909 41.890909 93.090909 93.090909-41.890909 93.090909-93.090909 93.090909-93.090909-41.890909-93.090909-93.090909z m-139.636364 0c0 51.2-41.890909 93.090909-93.090909 93.090909s-93.090909-41.890909-93.090909-93.090909 41.890909-93.090909 93.090909-93.090909 93.090909 41.890909 93.090909 93.090909z m-325.818182 0c0 51.2-41.890909 93.090909-93.090909 93.090909s-93.090909-41.890909-93.090909-93.090909 41.890909-93.090909 93.090909-93.090909 93.090909 41.890909 93.090909 93.090909z"  horiz-adv-x="1024" />

    
    <glyph glyph-name="paizhao" unicode="&#59082;" d="M512 499.2c-84.48 0-153.6-69.12-153.6-153.6s69.12-153.6 153.6-153.6 153.6 69.12 153.6 153.6-69.12 153.6-153.6 153.6z m0-268.8c-64 0-115.2 51.2-115.2 115.2s51.2 115.2 115.2 115.2 115.2-51.2 115.2-115.2-51.2-115.2-115.2-115.2zM691.2 473.6m-25.6 0a25.6 25.6 0 1 1 51.2 0 25.6 25.6 0 1 1-51.2 0ZM512 896C229.12 896 0 666.88 0 384s229.12-512 512-512 512 229.12 512 512S794.88 896 512 896z m268.8-704c0-28.16-23.04-51.2-51.2-51.2H294.4c-28.16 0-51.2 23.04-51.2 51.2V499.2c0 28.16 23.04 51.2 51.2 51.2h69.12l1.28 12.8c3.84 28.16 28.16 51.2 53.76 51.2h189.44c25.6 0 44.8-23.04 40.96-51.2l-1.28-12.8H729.6c28.16 0 51.2-23.04 51.2-51.2v-307.2z"  horiz-adv-x="1024" />

    
    <glyph glyph-name="congxiangcezhongxuanze" unicode="&#59083;" d="M281.6 345.6v-140.8h473.6v89.6c-253.44-72.96-291.84 238.08-473.6 51.2zM665.6 486.4m-51.2 0a51.2 51.2 0 1 1 102.4 0 51.2 51.2 0 1 1-102.4 0ZM512 896C229.12 896 0 666.88 0 384s229.12-512 512-512 512 229.12 512 512S794.88 896 512 896z m281.6-691.2c0-28.16-23.04-51.2-51.2-51.2H294.4c-28.16 0-51.2 23.04-51.2 51.2V550.4c0 28.16 23.04 51.2 51.2 51.2h448c28.16 0 51.2-23.04 51.2-51.2v-345.6z"  horiz-adv-x="1024" />

    
    <glyph glyph-name="recall" unicode="&#59094;" d="M529.92 581.12c-10.24 10.24-25.6 10.24-35.84 0l-171.52-163.84c-10.24-10.24-10.24-25.6 0-35.84 10.24-10.24 25.6-10.24 35.84 0l128 122.88v-296.96c0-15.36 10.24-28.16 25.6-28.16s25.6 12.8 25.6 28.16V504.32l128-122.88c5.12-5.12 10.24-7.68 17.92-7.68 7.68 0 12.8 2.56 17.92 7.68 10.24 10.24 10.24 25.6 0 35.84l-171.52 163.84zM793.6 768H230.4C174.08 768 128 721.92 128 665.6v-563.2c0-56.32 46.08-102.4 102.4-102.4h563.2c56.32 0 102.4 46.08 102.4 102.4V665.6c0 56.32-46.08 102.4-102.4 102.4z m51.2-665.6c0-28.16-23.04-51.2-51.2-51.2H230.4c-28.16 0-51.2 23.04-51.2 51.2V665.6c0 28.16 23.04 51.2 51.2 51.2h563.2c28.16 0 51.2-23.04 51.2-51.2v-563.2z"  horiz-adv-x="1024" />

    
    <glyph glyph-name="Transfer" unicode="&#59095;" d="M422.4 563.2c-20.48 0-38.4-17.92-38.4-38.4v-235.52l-61.44 51.2c-15.36 12.8-40.96 12.8-53.76-5.12-12.8-15.36-12.8-40.96 5.12-53.76l122.88-104.96c7.68-5.12 15.36-10.24 25.6-10.24s20.48 5.12 28.16 12.8c7.68 7.68 10.24 20.48 7.68 30.72V522.24c2.56 23.04-15.36 40.96-35.84 40.96zM627.2 560.64c-15.36 12.8-40.96 12.8-53.76-5.12-7.68-7.68-10.24-17.92-10.24-28.16v-309.76c0-20.48 17.92-38.4 38.4-38.4s38.4 17.92 38.4 38.4v230.4l61.44-51.2c7.68-5.12 15.36-10.24 25.6-10.24s20.48 5.12 28.16 12.8c12.8 15.36 12.8 40.96-5.12 53.76l-122.88 107.52zM844.8 857.6H179.2C102.4 857.6 38.4 793.6 38.4 716.8v-665.6c0-76.8 64-140.8 140.8-140.8h665.6c76.8 0 140.8 64 140.8 140.8V716.8c0 76.8-64 140.8-140.8 140.8zM908.8 51.200000000000045c0-35.84-28.16-64-64-64H179.2c-35.84 0-64 28.16-64 64V716.8c0 35.84 28.16 64 64 64h665.6c35.84 0 64-28.16 64-64v-665.6z"  horiz-adv-x="1024" />

    
    <glyph glyph-name="transferred" unicode="&#59096;" d="M683.52 394.24c-5.12 0-12.8-2.56-17.92-7.68l-128-122.88V542.72c0 15.36-10.24 28.16-25.6 28.16s-25.6-12.8-25.6-28.16v-279.04l-128 122.88c-10.24 10.24-25.6 10.24-35.84 0-10.24-10.24-10.24-25.6 0-35.84l171.52-163.84c10.24-10.24 25.6-10.24 35.84 0l171.52 163.84c10.24 10.24 10.24 25.6 0 35.84-5.12 5.12-10.24 7.68-17.92 7.68zM793.6 768H230.4C174.08 768 128 721.92 128 665.6v-563.2c0-56.32 46.08-102.4 102.4-102.4h563.2c56.32 0 102.4 46.08 102.4 102.4V665.6c0 56.32-46.08 102.4-102.4 102.4z m51.2-665.6c0-28.16-23.04-51.2-51.2-51.2H230.4c-28.16 0-51.2 23.04-51.2 51.2V665.6c0 28.16 23.04 51.2 51.2 51.2h563.2c28.16 0 51.2-23.04 51.2-51.2v-563.2z"  horiz-adv-x="1024" />

    
    <glyph glyph-name="Unchecked" unicode="&#59097;" d="M512 819.2c240.64 0 435.2-194.56 435.2-435.2s-194.56-435.2-435.2-435.2S76.8 143.36 76.8 384 271.36 819.2 512 819.2m0 51.2C243.2 870.4 25.6 652.8 25.6 384s217.6-486.4 486.4-486.4 486.4 217.6 486.4 486.4S780.8 870.4 512 870.4z"  horiz-adv-x="1024" />

    
    <glyph glyph-name="select" unicode="&#59098;" d="M512 870.4C243.2 870.4 25.6 652.8 25.6 384s217.6-486.4 486.4-486.4 486.4 217.6 486.4 486.4S780.8 870.4 512 870.4z m302.08-330.24L473.6 192c-7.68-7.68-17.92-12.8-28.16-12.8s-20.48 5.12-28.16 12.8l-209.92 215.04c-15.36 15.36-15.36 38.4 0 53.76 15.36 15.36 38.4 15.36 53.76 0l181.76-186.88 312.32 320c15.36 15.36 38.4 15.36 53.76 0 17.92-12.8 17.92-38.4 5.12-53.76z"  horiz-adv-x="1024" />

    
    <glyph glyph-name="pricelowtohi" unicode="&#58935;" d="M469.333333-128V597.333333c-68.266667-38.4-110.933333-42.666667-170.666666-42.666666 106.666667 89.6 162.133333 200.533333 213.333333 341.333333 51.2-140.8 110.933333-247.466667 213.333333-341.333333-68.266667 4.266667-98.133333 4.266667-170.666666 42.666666v-725.333333h-85.333334z"  horiz-adv-x="1024" />

    
    <glyph glyph-name="pricehightol" unicode="&#58936;" d="M469.333333 896v-725.333333c-68.266667 38.4-110.933333 42.666667-170.666666 42.666666 106.666667-89.6 162.133333-200.533333 213.333333-341.333333 51.2 140.8 110.933333 247.466667 213.333333 341.333333-68.266667-4.266667-98.133333-4.266667-170.666666-42.666666V896h-85.333334z"  horiz-adv-x="1024" />

    
    <glyph glyph-name="Input_password" unicode="&#58944;" d="M806.4 497.066667h-27.733333v108.8C778.666667 746.666667 659.2 859.733333 512 859.733333S245.333333 746.666667 245.333333 605.866667v-108.8h-27.733333c-64 0-115.2-49.066667-115.2-110.933334v-369.066666c0-59.733333 51.2-110.933333 115.2-110.933334h590.933333c64 0 115.2 49.066667 115.2 110.933334V388.266667c0 59.733333-53.333333 108.8-117.333333 108.8z m-484.266667 108.8c0 98.133333 85.333333 179.2 189.866667 179.2s189.866667-81.066667 189.866667-179.2v-108.8H322.133333v108.8z m522.666667-586.666667c0-19.2-17.066667-36.266667-38.4-36.266667H217.6c-21.333333 0-38.4 17.066667-38.4 36.266667V388.266667c0 19.2 17.066667 36.266667 38.4 36.266666h590.933333c21.333333 0 38.4-17.066667 38.4-36.266666v-369.066667z m0 0M426.666667 202.66666699999996c0-44.8 38.4-81.066667 85.333333-81.066667s85.333333 36.266667 85.333333 81.066667c0 44.8-38.4 81.066667-85.333333 81.066666s-85.333333-36.266667-85.333333-81.066666z m0 0"  horiz-adv-x="1024" />

    
    <glyph glyph-name="Display_cipher" unicode="&#58945;" d="M936.533333 430.933333C932.266667 443.733333 810.666667 716.8 512 716.8 213.333333 716.8 91.733333 441.6 87.466667 433.066667 72.533333 405.333333 72.533333 362.66666699999996 85.333333 337.06666700000005c0-2.133333 113.066667-285.866667 426.666667-285.866667s424.533333 283.733333 424.533333 283.733333c14.933333 29.866667 12.8 72.533333 0 96z m-68.266666-66.133333c0-2.133333-96-238.933333-356.266667-238.933333S157.866667 356.266667 153.6 369.06666700000005c-4.266667 6.4-4.266667 23.466667 2.133333 32 0 2.133333 106.666667 241.066667 356.266667 241.066666s352-230.4 358.4-243.2c2.133333-6.4 4.266667-23.466667-2.133333-34.133333zM512 569.6c-81.066667 0-147.2-66.133333-147.2-147.2v-83.2c0-81.066667 66.133333-147.2 147.2-147.2 81.066667 0 147.2 66.133333 147.2 147.2v83.2c0 81.066667-66.133333 147.2-147.2 147.2z m74.666667-232.533333c0-40.533333-34.133333-74.666667-74.666667-74.666667s-74.666667 34.133333-74.666667 74.666667v83.2c0 40.533333 34.133333 74.666667 74.666667 74.666666s74.666667-34.133333 74.666667-74.666666v-83.2z"  horiz-adv-x="1024" />

    
    <glyph glyph-name="Verification_Code" unicode="&#58946;" d="M913.066667 714.666667c-6.4 2.133333-8.533333 6.4-12.8 6.4h-21.333334c-61.866667 2.133333-123.733333 17.066667-183.466666 38.4-53.333333 21.333333-108.8 49.066667-157.866667 83.2l-12.8 8.533333c-2.133333 2.133333-8.533333 2.133333-10.666667 2.133333h-10.666666l-12.8-8.533333c-51.2-34.133333-106.666667-59.733333-160-81.066667-59.733333-21.333333-121.6-34.133333-183.466667-38.4h-21.333333c-6.4 0-10.666667-2.133333-14.933334-6.4-2.133333-4.266667-4.266667-6.4-4.266666-12.8v-379.733333C106.666667 125.866667 371.2-85.33333300000004 512-85.33333300000004s405.333333 209.066667 405.333333 405.333333V699.733333c0 6.4 0 12.8-4.266666 14.933334z m-72.533334-379.733334c-10.666667-83.2-53.333333-164.266667-117.333333-221.866666-57.6-51.2-132.266667-98.133333-211.2-110.933334-108.8 0-328.533333 187.733333-328.533333 332.8V640c61.866667 2.133333 119.466667 17.066667 177.066666 36.266667 53.333333 17.066667 104.533333 42.666667 153.6 72.533333 49.066667-27.733333 100.266667-51.2 153.6-72.533333 57.6-19.2 117.333333-32 177.066667-36.266667v-305.066667zM388.266667 401.066667c-12.8 12.8-38.4 12.8-51.2 0-12.8-12.8-12.8-38.4 0-51.2l110.933333-110.933334c8.533333-8.533333 17.066667-10.666667 27.733333-10.666666s19.2 2.133333 27.733334 10.666666l234.666666 238.933334c12.8 12.8 12.8 38.4 0 51.2-12.8 12.8-38.4 12.8-51.2 0l-213.333333-213.333334-85.333333 85.333334z"  horiz-adv-x="1024" />

    
    <glyph glyph-name="telephone" unicode="&#58947;" d="M512 337.06666700000005c25.6 0 46.933333 21.333333 46.933333 46.933333 0 25.6-21.333333 46.933333-46.933333 46.933333-25.6 0-46.933333-21.333333-46.933333-46.933333 0-25.6 21.333333-46.933333 46.933333-46.933333zM750.933333 893.866667H273.066667c-70.4 0-128-57.6-128-128V0c0-70.4 57.6-128 128-128h477.866666c70.4 0 128 57.6 128 128V765.866667c0 70.4-57.6 128-128 128z m44.8-891.733334c0-32-27.733333-59.733333-59.733333-59.733333h-448c-32 0-59.733333 27.733333-59.733333 59.733333v89.6h567.466666v-89.6z m0 170.666667H228.266667V652.8l567.466666-2.133333v-477.866667z m0 554.666667H228.266667V757.333333c0 32 27.733333 59.733333 59.733333 59.733334h448c32 0 59.733333-27.733333 59.733333-59.733334v-29.866666z"  horiz-adv-x="1024" />

    
    <glyph glyph-name="shadow_passwords" unicode="&#58948;" d="M947.2 539.733333c8.533333 14.933333 6.4 34.133333-6.4 44.8-14.933333 10.666667-34.133333 8.533333-44.8-6.4-2.133333-2.133333-177.066667-209.066667-384-209.066666-202.666667 0-384 209.066667-386.133333 209.066666-10.666667 12.8-32 14.933333-44.8 2.133334-12.8-10.666667-14.933333-32-2.133334-44.8 2.133333-2.133333 40.533333-44.8 100.266667-91.733334l-81.066667-83.2c-12.8-12.8-10.666667-34.133333 2.133334-44.8 2.133333-6.4 10.666667-8.533333 19.2-8.533333s14.933333 2.133333 21.333333 8.533333l87.466667 89.6c40.533333-27.733333 89.6-55.466667 142.933333-74.666666l-34.133333-110.933334c-4.266667-17.066667 4.266667-34.133333 21.333333-38.4h8.533333c14.933333 0 27.733333 8.533333 29.866667 23.466667l34.133333 110.933333c25.6-4.266667 51.2-8.533333 78.933334-8.533333 27.733333 0 53.333333 2.133333 78.933333 8.533333l34.133333-110.933333c2.133333-14.933333 17.066667-23.466667 29.866667-23.466667 2.133333 0 6.4 0 8.533333 2.133334 17.066667 4.266667 27.733333 21.333333 21.333334 38.4l-34.133334 110.933333c53.333333 19.2 102.4 44.8 142.933334 74.666667l85.333333-87.466667c6.4-6.4 14.933333-8.533333 21.333333-8.533333 8.533333 0 14.933333 2.133333 21.333334 8.533333 12.8 12.8 12.8 32 2.133333 44.8L840.533333 448c68.266667 44.8 106.666667 91.733333 106.666667 91.733333z m0 0"  horiz-adv-x="1024" />

    
    <glyph glyph-name="add1" unicode="&#58949;" d="M512 390.4c46.933333 0 85.333333 38.4 85.333333 85.333333s-38.4 85.333333-85.333333 85.333334-85.333333-38.4-85.333333-85.333334 38.4-85.333333 85.333333-85.333333z m0-68.266667c-85.333333 0-153.6 68.266667-153.6 153.6s68.266667 153.6 153.6 153.6 153.6-68.266667 153.6-153.6-68.266667-153.6-153.6-153.6z m275.2 136.533334c0 151.466667-123.733333 275.2-275.2 275.2-151.466667 0-275.2-123.733333-275.2-275.2 0-96 91.733333-232.533333 275.2-398.933334 183.466667 166.4 275.2 300.8 275.2 398.933334zM535.466667-12.799999999999955l-23.466667-21.333333-23.466667 21.333333c-213.333333 189.866667-320 345.6-320 471.466667 0 189.866667 153.6 343.466667 343.466667 343.466666 189.866667 0 343.466667-153.6 343.466667-343.466666 0-125.866667-108.8-281.6-320-471.466667z m0 0"  horiz-adv-x="1024" />

    
    <glyph glyph-name="nav-back" unicode="&#58950;" d="M454.981818 384l164.072727 164.072727c9.309091 9.309091 9.309091 23.272727 0 32.581818-9.309091 9.309091-23.272727 9.309091-32.581818 0L404.945455 400.290909c-9.309091-9.309091-9.309091-23.272727 0-32.581818L586.472727 186.18181800000002c9.309091-9.309091 23.272727-9.309091 32.581818 0 9.309091 9.309091 9.309091 23.272727 0 32.581818L454.981818 384z"  horiz-adv-x="1024" />

    
    <glyph glyph-name="nav-more" unicode="&#58951;" d="M512 500.363636c25.6 0 46.545455 20.945455 46.545455 46.545455s-20.945455 46.545455-46.545455 46.545454-46.545455-20.945455-46.545455-46.545454 20.945455-46.545455 46.545455-46.545455z m0-69.818181c-25.6 0-46.545455-20.945455-46.545455-46.545455s20.945455-46.545455 46.545455-46.545455 46.545455 20.945455 46.545455 46.545455-20.945455 46.545455-46.545455 46.545455z m0-162.909091c-25.6 0-46.545455-20.945455-46.545455-46.545455s20.945455-46.545455 46.545455-46.545454 46.545455 20.945455 46.545455 46.545454-20.945455 46.545455-46.545455 46.545455z"  horiz-adv-x="1024" />

    
    <glyph glyph-name="nav-search" unicode="&#58952;" d="M714.472727 214.10909100000003l-54.690909 54.690909c-1.163636 1.163636-3.490909 2.327273-4.654545 3.490909C681.890909 306.03636400000005 698.181818 349.090909 698.181818 395.636364c0 109.381818-88.436364 197.818182-197.818182 197.818181s-197.818182-88.436364-197.818181-197.818181 88.436364-197.818182 197.818181-197.818182c46.545455 0 89.6 16.290909 123.345455 43.054545 1.163636-1.163636 2.327273-3.490909 3.490909-4.654545l54.690909-54.690909c9.309091-9.309091 23.272727-9.309091 32.581818 0 9.309091 9.309091 9.309091 24.436364 0 32.581818zM500.363636 244.36363600000004c-83.781818 0-151.272727 67.490909-151.272727 151.272728s67.490909 151.272727 151.272727 151.272727 151.272727-67.490909 151.272728-151.272727-67.490909-151.272727-151.272728-151.272728z"  horiz-adv-x="1024" />

    
    <glyph glyph-name="warn" unicode="&#58953;" d="M524.8 640c-20.48 0-38.4-17.92-38.4-38.4v-332.8c0-20.48 17.92-38.4 38.4-38.4s38.4 17.92 38.4 38.4v332.8c0 20.48-17.92 38.4-38.4 38.4zM512 819.2C271.36 819.2 76.8 624.64 76.8 384s194.56-435.2 435.2-435.2 435.2 194.56 435.2 435.2S752.64 819.2 512 819.2z m0-819.2c-212.48 0-384 171.52-384 384S299.52 768 512 768s384-171.52 384-384-171.52-384-384-384z m12.8 179.2c-20.48 0-38.4-17.92-38.4-38.4s17.92-38.4 38.4-38.4 38.4 17.92 38.4 38.4-17.92 38.4-38.4 38.4z"  horiz-adv-x="1024" />

    
    <glyph glyph-name="star" unicode="&#58954;" d="M829.44-115.20000000000005l-317.44 179.2-317.44-179.2 69.12 363.52L0 501.76l358.4 46.08L512 883.2l153.6-335.36 358.4-46.08-263.68-253.44 69.12-363.52z"  horiz-adv-x="1024" />

    
    <glyph glyph-name="car" unicode="&#58955;" d="M829.44 240.64h-532.48c-6.144 0-14.336 2.048-20.48 2.048V179.20000000000005c0-6.144-2.048-14.336-2.048-20.48H880.64c16.384 0 30.72-14.336 30.72-30.72S897.024 97.27999999999997 880.64 97.27999999999997H215.04V734.208c-4.096-2.048-6.144-2.048-10.24-2.048H143.36c-8.192 0-16.384 4.096-22.528 10.24 0 0-2.048 0-2.048-2.048 0 0 0 2.048 2.048 2.048-6.144 6.144-8.192 12.288-8.192 20.48C112.64 779.264 126.976 793.6 143.36 793.6h61.44c6.144 0 10.24-2.048 14.336-4.096 32.768-10.24 57.344-40.96 57.344-77.824v-43.008c6.144 2.048 14.336 2.048 20.48 2.048h532.48c45.056 0 81.92-36.864 81.92-81.92v-266.24c0-45.056-36.864-81.92-81.92-81.92z m20.48 368.64h-573.44v-307.2h573.44V609.28zM307.2 76.79999999999995c28.672 0 51.2-22.528 51.2-51.2S335.872-25.600000000000023 307.2-25.600000000000023s-51.2 22.528-51.2 51.2S278.528 76.79999999999995 307.2 76.79999999999995z m450.56 0c28.672 0 51.2-22.528 51.2-51.2S786.432-25.600000000000023 757.76-25.600000000000023s-51.2 22.528-51.2 51.2S729.088 76.79999999999995 757.76 76.79999999999995z"  horiz-adv-x="1024" />

    
    <glyph glyph-name="selected01" unicode="&#58957;" d="M847.36 604.1600000000001c-15.36 15.36-38.4 15.36-53.76 0l-353.28-355.84-207.36 209.92c-15.36 15.36-38.4 15.36-53.76 0-15.36-15.36-15.36-38.4 0-53.76l235.52-238.08c15.36-15.36 38.4-15.36 53.76 0l378.88 384c15.36 12.8 15.36 38.4 0 53.76z"  horiz-adv-x="1024" />

    
    <glyph glyph-name="nav-date" unicode="&#58960;" d="M698.181818 546.909091h-69.818182v34.909091c0 12.8-10.472727 23.272727-23.272727 23.272727s-23.272727-10.472727-23.272727-23.272727v-34.909091H453.818182v34.909091c0 12.8-10.472727 23.272727-23.272727 23.272727s-23.272727-10.472727-23.272728-23.272727v-34.909091h-81.454545c-12.8 0-23.272727-10.472727-23.272727-23.272727v-337.454546c0-12.8 10.472727-23.272727 23.272727-23.272727h372.363636c12.8 0 23.272727 10.472727 23.272727 23.272727V523.636364c0 12.8-10.472727 23.272727-23.272727 23.272727z m-23.272727-314.181818c0-12.8-10.472727-23.272727-23.272727-23.272728H372.363636c-12.8 0-23.272727 10.472727-23.272727 23.272728V384h325.818182v-151.272727z m0 197.818182H349.090909v46.545454c0 12.8 10.472727 23.272727 23.272727 23.272727h34.909091v-11.636363c0-12.8 10.472727-23.272727 23.272728-23.272728s23.272727 10.472727 23.272727 23.272728v11.636363h128v-11.636363c0-12.8 10.472727-23.272727 23.272727-23.272728s23.272727 10.472727 23.272727 23.272728v11.636363h23.272728c12.8 0 23.272727-10.472727 23.272727-23.272727v-46.545454z"  horiz-adv-x="1024" />

    
    <glyph glyph-name="minus" unicode="&#58961;" d="M522.24 844.8c-249.856 0-450.56-200.704-450.56-450.56s200.704-450.56 450.56-450.56c247.808 0 450.56 200.704 450.56 450.56s-202.752 450.56-450.56 450.56z m0-860.16c-225.28 0-409.6 184.32-409.6 409.6s184.32 409.6 409.6 409.6 409.6-184.32 409.6-409.6-184.32-409.6-409.6-409.6zM307.2 414.72h450.56c16.384 0 30.72-14.336 30.72-30.72s-14.336-30.72-30.72-30.72H307.2c-16.384 0-30.72 14.336-30.72 30.72s14.336 30.72 30.72 30.72z"  horiz-adv-x="1024" />

    
    <glyph glyph-name="plus" unicode="&#58962;" d="M512 834.56C262.144 834.56 61.44 633.856 61.44 384s200.704-450.56 450.56-450.56 450.56 200.704 450.56 450.56S761.856 834.56 512 834.56z m235.52-491.52H552.96v-194.56c0-16.384-14.336-30.72-30.72-30.72s-30.72 14.336-30.72 30.72V343.03999999999996h-194.56c-16.384 0-30.72 14.336-30.72 30.72s14.336 30.72 30.72 30.72H491.52v194.56c0 16.384 14.336 30.72 30.72 30.72s30.72-14.336 30.72-30.72V404.48h194.56c16.384 0 30.72-14.336 30.72-30.72s-14.336-30.72-30.72-30.72z"  horiz-adv-x="1024" />

    
    <glyph glyph-name="balance" unicode="&#58963;" d="M512 601.6c-168.96 0-304.64-122.88-307.2-276.48 0-2.56 2.56-5.12 5.12-5.12h43.52c2.56 0 5.12 2.56 5.12 5.12 2.56 125.44 115.2 225.28 256 225.28s253.44-99.84 256-225.28c0-2.56 2.56-5.12 5.12-5.12H819.2c2.56 0 5.12 2.56 5.12 5.12-7.68 153.6-143.36 276.48-312.32 276.48z m384 128H128c-28.16 0-51.2-23.04-51.2-51.2v-588.8c0-28.16 23.04-51.2 51.2-51.2h768c28.16 0 51.2 23.04 51.2 51.2v588.8c0 28.16-23.04 51.2-51.2 51.2z m0-614.4c0-15.36-10.24-25.6-25.6-25.6H153.6c-15.36 0-25.6 10.24-25.6 25.6v537.6c0 15.36 10.24 25.6 25.6 25.6h716.8c15.36 0 25.6-10.24 25.6-25.6v-537.6z m-243.2 330.24c-12.8 7.68-28.16 2.56-35.84-10.24l-128-227.84c-7.68-12.8-2.56-28.16 10.24-35.84 12.8-7.68 28.16-2.56 35.84 10.24l128 227.84c7.68 12.8 2.56 28.16-10.24 35.84z"  horiz-adv-x="1024" />

    
    <glyph glyph-name="phone1" unicode="&#58964;" d="M512 64c28.16 0 51.2 23.04 51.2 51.2s-23.04 51.2-51.2 51.2-51.2-23.04-51.2-51.2 23.04-51.2 51.2-51.2z m256 742.4H256c-28.16 0-51.2-23.04-51.2-51.2v-742.4c0-28.16 23.04-51.2 51.2-51.2h512c28.16 0 51.2 23.04 51.2 51.2v742.4c0 28.16-23.04 51.2-51.2 51.2z m0-768c0-15.36-10.24-25.6-25.6-25.6H281.6c-15.36 0-25.6 10.24-25.6 25.6v179.2h512v-179.2z m0 230.4H256v460.8c0 15.36 10.24 25.6 25.6 25.6h460.8c15.36 0 25.6-10.24 25.6-25.6v-460.8z m-153.6 409.6h-204.8c-15.36 0-25.6-10.24-25.6-25.6s10.24-25.6 25.6-25.6h204.8c15.36 0 25.6 10.24 25.6 25.6s-10.24 25.6-25.6 25.6z"  horiz-adv-x="1024" />

    
    <glyph glyph-name="voice2" unicode="&#58965;" d="M522.24 261.12c83.968 0 153.6 69.632 153.6 153.6v102.4c0 83.968-69.632 153.6-153.6 153.6S368.64 601.088 368.64 517.12v-102.4c0-83.968 69.632-153.6 153.6-153.6zM409.6 517.12c0 61.44 51.2 112.64 112.64 112.64s112.64-51.2 112.64-112.64v-102.4c0-61.44-51.2-112.64-112.64-112.64S409.6 353.28 409.6 414.72v102.4zM757.76 465.92c-12.288 0-20.48-8.192-20.48-20.48v-30.72C737.28 295.93600000000004 641.024 199.67999999999995 522.24 199.67999999999995S307.2 295.93600000000004 307.2 414.72V445.44c0 12.288-8.192 20.48-20.48 20.48s-20.48-8.192-20.48-20.48v-30.72c0-131.072 98.304-239.616 225.28-253.952v-73.728c0-16.384 14.336-30.72 30.72-30.72s30.72 14.336 30.72 30.72v73.728c126.976 14.336 225.28 122.88 225.28 253.952V445.44c0 12.288-8.192 20.48-20.48 20.48zM512 896C229.376 896 0 666.624 0 384s229.376-512 512-512 512 229.376 512 512S794.624 896 512 896z m0-1003.52C239.616-107.51999999999998 20.48 111.61599999999999 20.48 384S239.616 875.52 512 875.52s491.52-219.136 491.52-491.52-219.136-491.52-491.52-491.52z"  horiz-adv-x="1024" />

    
    <glyph glyph-name="drop-down" unicode="&#58966;" d="M942.08 657.066667L512 209.91999999999996 81.92 657.066667 34.133333 605.866667 512 110.93333299999995 989.866667 605.866667z"  horiz-adv-x="1024" />

    
    <glyph glyph-name="pull" unicode="&#58967;" d="M235.52 571.733333h556.373333c10.24 0 17.066667-13.653333 10.24-23.893333L512 196.26666699999998 225.28 547.8399999999999c-10.24 10.24-3.413333 23.893333 10.24 23.893333z"  horiz-adv-x="1024" />

    
    <glyph glyph-name="add2" unicode="&#58968;" d="M512 896C229.12 896 0 666.88 0 384s229.12-512 512-512 512 229.12 512 512S794.88 896 512 896z m230.4-550.4H550.4v-192c0-21.76-16.64-38.4-38.4-38.4s-38.4 16.64-38.4 38.4V345.6H281.6c-21.76 0-38.4 16.64-38.4 38.4s16.64 38.4 38.4 38.4h192V614.4c0 21.76 16.64 38.4 38.4 38.4s38.4-16.64 38.4-38.4v-192h192c21.76 0 38.4-16.64 38.4-38.4s-16.64-38.4-38.4-38.4z"  horiz-adv-x="1024" />

    
    <glyph glyph-name="cleared11" unicode="&#58969;" d="M471.04 650.24h81.92V814.08h-81.92v-163.84z m0 204.8h81.92a40.96 40.96 0 0 0 40.96-40.96v-204.8h-163.84V814.08a40.96 40.96 0 0 0 40.96 40.96zM198.84032 465.92L143.44192-26.78783999999996C143.36-37.785600000000045 152.3712-46.08000000000004 164.33152-46.08000000000004h368.5376a20.48 20.48 0 1 0 0-40.96H164.31104C130.47808-87.03999999999996 102.4-61.194240000000036 102.4-28.426240000000007c0 2.06848 0.12288 4.15744 0.34816 6.20544l57.42592 510.91456A20.48 20.48 0 0 0 180.5312 506.88h662.9376a20.48 20.48 0 0 0 20.35712-18.18624l57.42592-510.91456c3.6864-32.70656-21.56544-61.29664-55.35744-64.512-2.06848-0.2048-4.13696-0.3072-6.20544-0.3072h-162.46784a20.48 20.48 0 1 0 0 40.96h162.46784c14.04928 1.2288 21.89312 10.11712 20.84864 19.29216L825.15968 465.92H198.8608zM81.92 609.28v-102.4h860.16v102.4H81.92z m0 40.96h860.16a40.96 40.96 0 0 0 40.96-40.96v-102.4a40.96 40.96 0 0 0-40.96-40.96H81.92a40.96 40.96 0 0 0-40.96 40.96v102.4a40.96 40.96 0 0 0 40.96 40.96zM348.16 261.12v-307.2 307.2z m0 20.48a20.48 20.48 0 0 0 20.48-20.48v-307.2a20.48 20.48 0 0 0-40.96 0V261.12a20.48 20.48 0 0 0 20.48 20.48zM532.48 117.75999999999999v-184.32 184.32z m0 20.48a20.48 20.48 0 0 0 20.48-20.48v-184.32a20.48 20.48 0 0 0-40.96 0v184.32a20.48 20.48 0 0 0 20.48 20.48z"  horiz-adv-x="1024" />

    
    <glyph glyph-name="discover" unicode="&#58970;" d="M512-66.55999999999995c-249.856 0-450.56 200.704-450.56 450.56s200.704 450.56 450.56 450.56c69.632 0 137.216-16.384 196.608-45.056 16.384-8.192 28.672-26.624 28.672-47.104 0-28.672-22.528-51.2-51.2-51.2-10.24 0-18.432 2.048-26.624 8.192-45.056 20.48-94.208 32.768-147.456 32.768-192.512 0-348.16-155.648-348.16-348.16s155.648-348.16 348.16-348.16 348.16 155.648 348.16 348.16c0 53.248-12.288 102.4-32.768 147.456-2.048 4.096-4.096 6.144-4.096 10.24-10.24 26.624 4.096 55.296 30.72 65.536 24.576 8.192 51.2-2.048 63.488-26.624 0 0 47.104-124.928 47.104-196.608-2.048-249.856-202.752-450.56-452.608-450.56z m0 696.32c135.168 0 245.76-110.592 245.76-245.76s-110.592-245.76-245.76-245.76h-10.24c-4.096 0-8.192 0-12.288 2.048-12.288 2.048-30.72 18.432-30.72 18.432-6.144 8.192-10.24 18.432-10.24 30.72 0 24.576 16.384 45.056 40.96 49.152 0 0 14.336 2.048 20.48 2.048 79.872 0 143.36 63.488 143.36 143.36s-63.488 143.36-143.36 143.36-143.36-63.488-143.36-143.36v-30.72c0-28.672-22.528-51.2-51.2-51.2-12.288 0-22.528 4.096-30.72 10.24 0 0-12.288 8.192-12.288 14.336-4.096 8.192-8.192 16.384-8.192 26.624V384c2.048 135.168 112.64 245.76 247.808 245.76z"  horiz-adv-x="1024" />

    
    <glyph glyph-name="commodity11" unicode="&#58971;" d="M676.31104 814.08a20.48 20.48 0 0 0 0 40.96H921.6a61.44 61.44 0 0 0 61.44-61.44v-819.2a61.44 61.44 0 0 0-61.44-61.44H102.4a61.44 61.44 0 0 0-61.44 61.44V793.6a61.44 61.44 0 0 0 61.44 61.44h245.76a20.48 20.48 0 1 0 0-40.96H102.4a20.48 20.48 0 0 1-20.48-20.48v-819.2a20.48 20.48 0 0 1 20.48-20.48h819.2a20.48 20.48 0 0 1 20.48 20.48V793.6a20.48 20.48 0 0 1-20.48 20.48H676.31104zM245.76 650.24m-40.96 0a40.96 40.96 0 1 1 81.92 0 40.96 40.96 0 1 1-81.92 0ZM778.24 650.24m-40.96 0a40.96 40.96 0 1 1 81.92 0 40.96 40.96 0 1 1-81.92 0ZM225.28 640a20.48 20.48 0 1 0 40.96 0C266.24 416.4608 354.2016 261.12 512 261.12s245.76 155.3408 245.76 378.88a20.48 20.48 0 0 0 40.96 0C798.72 396.84096 698.6752 220.15999999999997 512 220.15999999999997S225.28 396.84096 225.28 640z"  horiz-adv-x="1024" />

    
    <glyph glyph-name="client11" unicode="&#58972;" d="M626.11497 883.24096a20.48 20.48 0 1 0-9.09312-39.936A472.63744 472.63744 0 0 1 512.00041 855.04C251.84297 855.04 40.96041 644.15744 40.96041 384a469.89312 469.89312 0 0 1 167.81312-360.48896 20.48 20.48 0 0 0-26.37824-31.3344A510.85312 510.85312 0 0 0 0.00041 384C0.00041 666.76736 229.23305 896 512.00041 896c38.74816 0 76.96384-4.3008 114.11456-12.75904zM336.03625-96.95231999999999a20.48 20.48 0 1 0 14.09024 38.46144A470.07744 470.07744 0 0 1 512.00041-87.03999999999996c260.15744 0 471.04 210.88256 471.04 471.04 0 165.2736-85.79072 315.76064-223.8464 401.03936a20.48 20.48 0 1 0 21.52448 34.85696A511.5904 511.5904 0 0 0 1024.00041 384c0-282.76736-229.23264-512-512-512-60.74368 0-120.07424 10.58816-175.96416 31.04768zM413.22537 501.9648h68.68992v111.28832h39.40352v-111.28832h95.31392v111.28832h38.87104v-111.28832h70.81984v-37.2736h-70.81984v-124.60032h85.72928v-36.74112H398.31593v36.74112h83.59936V464.6912h-68.68992v37.2736z m108.09344-161.87392h95.31392V464.6912h-95.31392v-124.60032z m111.28832-56.44288c44.72832-50.05312 78.80704-94.24896 102.76864-131.52256l-34.07872-23.42912c-24.49408 40.46848-58.04032 85.72928-100.10624 135.7824l31.41632 19.16928z m-134.71744-3.72736l35.14368-16.50688c-27.68896-52.18304-60.70272-97.44384-98.5088-135.7824l-33.01376 23.9616c37.2736 35.67616 69.75488 78.27456 96.37888 128.32768z m-179.44576 145.36704a690.29888 690.29888 0 0 0-58.04032-68.15744l-12.77952 40.46848c58.04032 64.96256 100.10624 138.97728 126.73024 222.04416l36.20864-16.50688a634.12224 634.12224 0 0 0-52.71552-117.67808v-358.35904h-39.40352v298.1888z"  horiz-adv-x="1024" />

    
    <glyph glyph-name="Classification11" unicode="&#58973;" d="M102.4 793.6v-327.68h327.68V793.6H102.4z m0 40.96h327.68a40.96 40.96 0 0 0 40.96-40.96v-327.68a40.96 40.96 0 0 0-40.96-40.96H102.4a40.96 40.96 0 0 0-40.96 40.96V793.6a40.96 40.96 0 0 0 40.96 40.96zM102.4 302.08000000000004v-327.68h327.68V302.08000000000004H102.4z m0 40.96h327.68a40.96 40.96 0 0 0 40.96-40.96v-327.68a40.96 40.96 0 0 0-40.96-40.96H102.4a40.96 40.96 0 0 0-40.96 40.96V302.08000000000004a40.96 40.96 0 0 0 40.96 40.96zM593.92 793.6v-327.68h327.68V793.6H593.92z m0 40.96h327.68a40.96 40.96 0 0 0 40.96-40.96v-327.68a40.96 40.96 0 0 0-40.96-40.96H593.92a40.96 40.96 0 0 0-40.96 40.96V793.6a40.96 40.96 0 0 0 40.96 40.96zM963.8912 47.24735999999996a20.48 20.48 0 0 0-37.45792 16.54784A183.6032 183.6032 0 0 1 942.08 138.24a184.32 184.32 0 1 1-184.32-184.32 183.86944 183.86944 0 0 1 64.86016 11.73504 20.48 20.48 0 1 0 14.41792-38.33856C811.90912-82.14527999999996 785.14176-87.03999999999996 757.76-87.03999999999996c-124.416 0-225.28 100.864-225.28 225.28s100.864 225.28 225.28 225.28 225.28-100.864 225.28-225.28c0-31.744-6.57408-62.58688-19.1488-90.99264z"  horiz-adv-x="1024" />

    
    <glyph glyph-name="homepage" unicode="&#58974;" d="M808.96 312.32000000000005c-28.672 0-51.2-22.528-51.2-51.2v-92.16c0-34.816-4.096-65.536-16.384-86.016-22.528-22.528-53.248-36.864-86.016-36.864h-63.488c2.048 6.144 2.048 14.336 2.048 20.48v122.88c0 45.056-36.864 81.92-81.92 81.92s-81.92-36.864-81.92-81.92v-133.12c0-4.096 2.048-6.144 2.048-10.24h-63.488c-34.816 0-65.536 14.336-86.016 36.864-12.288 22.528-16.384 53.248-16.384 86.016V261.12c0 28.672-22.528 51.2-51.2 51.2s-51.2-22.528-51.2-51.2v-163.84c0-12.288 4.096-22.528 10.24-30.72 6.144-14.336 12.288-28.672 20.48-40.96 32.768-49.152 90.112-81.92 153.6-81.92h327.68c51.2 0 96.256 20.48 131.072 53.248l12.288 12.288c8.192 8.192 14.336 18.432 20.48 28.672 10.24 20.48 18.432 43.008 20.48 65.536 0 4.096 2.048 8.192 2.048 12.288v143.36c-2.048 30.72-24.576 53.248-53.248 53.248z m-296.96 61.44c45.056 0 81.92 36.864 81.92 81.92s-36.864 81.92-81.92 81.92-81.92-36.864-81.92-81.92 36.864-81.92 81.92-81.92z m413.696 106.496l-387.072 329.728c-10.24 10.24-24.576 14.336-36.864 14.336-6.144 0-12.288-2.048-18.432-4.096-6.144-2.048-14.336-6.144-18.432-12.288l-2.048-2.048-366.592-325.632c-20.48-20.48-20.48-51.2 0-71.68s51.2-20.48 71.68 0l335.872 296.96 350.208-296.96c20.48-20.48 53.248-20.48 73.728 0 18.432 20.48 18.432 53.248-2.048 71.68z"  horiz-adv-x="1024" />

    
    <glyph glyph-name="Goodsset" unicode="&#58975;" d="M593.87904-46.08000000000004a20.48 20.48 0 1 0 0-40.96H102.4a61.44 61.44 0 0 0-61.44 61.44V793.6a61.44 61.44 0 0 0 61.44 61.44h716.8a61.44 61.44 0 0 0 61.44-61.44v-497.09056a20.48 20.48 0 0 0-40.96 0V793.6a20.48 20.48 0 0 1-20.48 20.48H102.4a20.48 20.48 0 0 1-20.48-20.48v-819.2a20.48 20.48 0 0 1 20.48-20.48h491.47904zM245.76 629.76h450.56-450.56z m0 20.48h450.56a20.48 20.48 0 0 0 0-40.96H245.76a20.48 20.48 0 0 0 0 40.96zM245.76 465.92h307.2-307.2z m0 20.48h307.2a20.48 20.48 0 0 0 0-40.96H245.76a20.48 20.48 0 0 0 0 40.96zM245.76 302.08000000000004h266.24-266.24z m0 20.48h266.24a20.48 20.48 0 0 0 0-40.96H245.76a20.48 20.48 0 0 0 0 40.96zM946.9952 253.952a20.48 20.48 0 1 0 31.1296-26.624l-227.90144-266.24a20.48 20.48 0 0 0-30.80192-0.36864l-120.27904 134.144a20.48 20.48 0 0 0 30.5152 27.3408l104.6528-116.736L946.9952 253.952z"  horiz-adv-x="1024" />

    
    <glyph glyph-name="download" unicode="&#58976;" d="M880.64 363.52c0 16.384-14.336 30.72-30.72 30.72H655.36v348.16c0 22.528-18.432 40.96-40.96 40.96H409.6c-22.528 0-40.96-18.432-40.96-40.96v-348.16H174.08c-16.384 0-30.72-14.336-30.72-30.72 0-4.096 2.048-8.192 2.048-12.288l2.048-2.048c2.048-6.144 8.192-10.24 12.288-12.288l309.248-309.248 43.008-43.008 43.008 43.008 309.248 309.248c6.144 2.048 10.24 8.192 12.288 12.288l2.048 2.048c0 4.096 2.048 8.192 2.048 12.288zM512 70.65599999999995L249.856 332.79999999999995H389.12v2.048c4.096-2.048 6.144-2.048 10.24-2.048 16.384 0 30.72 14.336 30.72 30.72 0 4.096 0 6.144-2.048 10.24h2.048v327.68c0 12.288 8.192 20.48 20.48 20.48h122.88c12.288 0 20.48-8.192 20.48-20.48v-327.68h2.048c-2.048-4.096-2.048-6.144-2.048-10.24 0-16.384 14.336-30.72 30.72-30.72 4.096 0 6.144 0 10.24 2.048v-2.048h139.264L512 70.65599999999995z"  horiz-adv-x="1024" />

    
    <glyph glyph-name="Invite11" unicode="&#59068;" d="M622.3872 35.84000000000003a20.48 20.48 0 1 0 0-40.96H61.44a20.48 20.48 0 0 0-20.48 20.48c0 237.40416 187.84256 430.08 419.84 430.08 120.17664 0 232.20224-52.0192 311.296-141.47584a20.48 20.48 0 1 0-30.72-27.136C670.0032 357.60128 569.09824 404.48 460.8 404.48c-202.4448 0-367.98464-163.14368-378.368-368.64H622.3872zM450.56 424.96c-113.11104 0-204.8 91.68896-204.8 204.8S337.44896 834.56 450.56 834.56s204.8-91.68896 204.8-204.8-91.68896-204.8-204.8-204.8z m0 40.96a163.84 163.84 0 1 1 0 327.68 163.84 163.84 0 0 1 0-327.68zM696.32 76.79999999999995h286.72-286.72z m0 20.48h286.72a20.48 20.48 0 0 0 0-40.96H696.32a20.48 20.48 0 0 0 0 40.96zM839.68 220.15999999999997v-286.72 286.72z m20.48 0v-286.72a20.48 20.48 0 0 0-40.96 0V220.15999999999997a20.48 20.48 0 0 0 40.96 0z"  horiz-adv-x="1024" />

    
    <glyph glyph-name="message" unicode="&#59069;" d="M808.96 87.03999999999996h-266.24v2.048c-22.528 4.096-40.96 24.576-40.96 49.152s18.432 45.056 40.96 49.152v2.048h245.76c22.528 0 40.96 18.432 40.96 40.96v409.6c0 22.528-18.432 40.96-40.96 40.96h-552.96c-22.528 0-40.96-18.432-40.96-40.96v-409.6c0-8.192 2.048-14.336 6.144-20.48h-6.144v-92.16l57.344 57.344c20.48 20.48 51.2 20.48 71.68 0s20.48-51.2 0-71.68l-139.264-139.264c-10.24-12.288-24.576-20.48-40.96-20.48-28.672 0-51.2 22.528-51.2 51.2v665.6c0 67.584 55.296 122.88 122.88 122.88h593.92c67.584 0 122.88-55.296 122.88-122.88v-450.56c0-67.584-55.296-122.88-122.88-122.88z m-512 440.32c0 28.672 22.528 51.2 51.2 51.2h327.68c28.672 0 51.2-22.528 51.2-51.2s-22.528-51.2-51.2-51.2h-327.68c-28.672 0-51.2 22.528-51.2 51.2z m256-235.52h-204.8c-28.672 0-51.2 22.528-51.2 51.2s22.528 51.2 51.2 51.2h204.8c28.672 0 51.2-22.528 51.2-51.2s-22.528-51.2-51.2-51.2z"  horiz-adv-x="1024" />

    
    <glyph glyph-name="personal2" unicode="&#59070;" d="M817.152-35.84000000000003h-608.256c-100.352 0-159.744 110.592-102.4 192.512l129.024 172.032c2.048 4.096 4.096 6.144 8.192 10.24l4.096 2.048c8.192 8.192 20.48 12.288 32.768 12.288 28.672 0 51.2-22.528 51.2-51.2 0-20.48-126.976-172.032-126.976-172.032-18.432-26.624 0-63.488 34.816-63.488h550.912c32.768 0 53.248 36.864 34.816 63.488 0 0-124.928 149.504-124.928 172.032 0 28.672 22.528 51.2 51.2 51.2 12.288 0 24.576-4.096 32.768-12.288 0 0 8.192-8.192 10.24-12.288l126.976-169.984c55.296-83.968-4.096-194.56-104.448-194.56z m-305.152 143.36c-34.816 0-61.44 26.624-61.44 61.44v81.92h-20.48c-22.528 0-40.96 18.432-40.96 40.96s18.432 40.96 40.96 40.96h163.84c22.528 0 40.96-18.432 40.96-40.96s-18.432-40.96-40.96-40.96h-20.48v-81.92c0-34.816-26.624-61.44-61.44-61.44z m0 286.72c-112.64 0-204.8 92.16-204.8 204.8s92.16 204.8 204.8 204.8 204.8-92.16 204.8-204.8-92.16-204.8-204.8-204.8z m0 307.2c-57.344 0-102.4-45.056-102.4-102.4s45.056-102.4 102.4-102.4 102.4 45.056 102.4 102.4-45.056 102.4-102.4 102.4z"  horiz-adv-x="1024" />

    
    <glyph glyph-name="Suggestions" unicode="&#59071;" d="M208.143673 457.142857c-11.075918 0-20.062041 9.362286-20.06204 20.897959s8.986122 20.897959 20.06204 20.89796h294.243266c11.075918 0 20.062041-9.362286 20.062041-20.89796s-8.986122-20.897959-20.062041-20.897959H208.143673zM951.484082 856.022204a25.286531 25.286531 0 0 0 34.899591 2.96751c10.34449-8.526367 11.514776-23.719184 2.612245-33.89649L720.352653 518.0186120000001a25.286531 25.286531 0 0 0-34.899592-2.96751 23.552 23.552 0 0 0-2.612245 33.89649L951.484082 856.022204zM209.564735 269.06122400000004C197.694694 269.06122400000004 188.081633 278.42350999999996 188.081633 289.95918400000005s9.613061 20.897959 21.483102 20.897959h458.584816c11.870041 0 21.483102-9.362286 21.483102-20.897959s-9.613061-20.897959-21.483102-20.89796H209.564735zM835.918367 519.2724900000001a20.897959 20.897959 0 1 0 41.795919 0V-23.510204000000044a62.693878 62.693878 0 0 0-62.693878-62.693878H83.591837a62.693878 62.693878 0 0 0-62.693878 62.693878V791.510204a62.693878 62.693878 0 0 0 62.693878 62.693878h606.145306a20.897959 20.897959 0 1 0 0-41.795919H83.591837a20.897959 20.897959 0 0 1-20.897959-20.897959v-815.020408a20.897959 20.897959 0 0 1 20.897959-20.897959h731.428571a20.897959 20.897959 0 0 1 20.897959 20.897959V519.2724900000001z"  horiz-adv-x="1024" />

    
    <glyph glyph-name="Storepersonal" unicode="&#59072;" d="M972.8 56.32000000000005c0-20.48-2.048-40.96-6.144-61.44h-61.44c4.096 20.48 6.144 40.96 6.144 61.44 0 114.688-67.584 215.04-167.936 260.096-10.24 4.096-20.48 14.336-24.576 24.576l-16.384 45.056c-4.096 14.336 0 22.528 8.192 26.624 59.392 24.576 96.256 94.208 65.536 167.936-10.24 24.576-28.672 43.008-53.248 55.296-40.96 20.48-79.872 18.432-112.64 2.048 8.192-22.528 12.288-45.056 12.288-69.632 0-73.728-38.912-139.264-98.304-174.08C675.84 355.328 788.48 218.11199999999997 788.48 56.32000000000005c0-20.48-2.048-40.96-6.144-61.44h-63.488c14.336 61.44 8.192 131.072-30.72 202.752-51.2 92.16-149.504 145.408-253.952 145.408h-30.72c-104.448 0-202.752-53.248-253.952-145.408C110.592 125.952 106.496 56.32000000000005 118.784-5.1200000000000045h-61.44c-4.096 20.48-6.144 40.96-6.144 61.44 0 161.792 112.64 299.008 262.144 337.92-77.824 47.104-120.832 143.36-86.016 245.76 18.432 55.296 61.44 100.352 116.736 118.784C440.32 793.6 532.48 758.784 583.68 691.2c43.008 22.528 94.208 26.624 149.504 8.192 51.2-18.432 90.112-59.392 108.544-108.544 28.672-88.064-6.144-174.08-71.68-217.088 118.784-55.296 202.752-176.128 202.752-317.44z m-552.96 655.36c-79.872 0-143.36-63.488-143.36-143.36s63.488-143.36 143.36-143.36 143.36 63.488 143.36 143.36-63.488 143.36-143.36 143.36z"  horiz-adv-x="1024" />

    
    <glyph glyph-name="understand1" unicode="&#59075;" d="M899.2768 81.30560000000003a20.48 20.48 0 1 0-32.256 25.23136A448.47104 448.47104 0 0 1 962.56 384c0 248.832-201.728 450.56-450.56 450.56S61.44 632.832 61.44 384s201.728-450.56 450.56-450.56c79.4624 0 155.89376 20.5824 223.3344 59.16672a20.48 20.48 0 0 0 20.33664-35.57376A489.30816 489.30816 0 0 0 512-107.51999999999998C240.5376-107.51999999999998 20.48 112.5376 20.48 384S240.5376 875.52 512 875.52s491.52-220.0576 491.52-491.52a489.41056 489.41056 0 0 0-104.2432-302.6944zM525.88544 473.16992c7.8848 0 14.39744-2.90816 19.49696-8.704 5.12-5.79584 7.65952-11.96032 7.65952-18.45248l-6.26688-19.49696c2.78528-2.78528 4.64896-6.73792 5.57056-11.83744 0.47104-2.31424 0.69632-4.87424 0.69632-7.65952 0-9.27744-1.04448-17.87904-3.13344-25.76384a103.424 103.424 0 0 1-3.13344-26.46016v-5.57056c0-2.31424-0.22528-4.99712-0.69632-8.00768a52.92032 52.92032 0 0 0-2.08896-8.704c-0.9216-3.25632-1.8432-6.73792-2.78528-10.4448v-7.65952c0-5.12-0.8192-9.27744-2.43712-12.53376-1.6384-3.25632-3.35872-7.43424-5.2224-12.53376a51.2 51.2 0 0 0-4.52608-11.48928 28.59008 28.59008 0 0 1-3.13344-13.57824c0-1.8432 0.47104-4.3008 1.39264-7.31136 0.9216-3.01056 2.31424-6.0416 4.17792-9.05216 1.8432-3.01056 4.05504-5.57056 6.61504-7.65952a13.37344 13.37344 0 0 1 8.704-3.13344 16.15872 16.15872 0 0 1 10.09664 3.4816c3.01056 2.31424 5.44768 4.87424 7.31136 7.65952 2.31424 2.31424 4.75136 4.3008 7.31136 5.91872a15.872 15.872 0 0 0 8.704 2.43712h13.23008c2.78528 0 4.4032-1.39264 4.87424-4.17792 0.47104-2.78528 0.69632-6.0416 0.69632-9.74848 0-1.39264-2.08896-4.17792-6.26688-8.35584-4.17792-4.17792-8.8064-8.704-13.9264-13.57824a415.9488 415.9488 0 0 0-25.76384-22.6304c-1.39264-3.25632-4.4032-8.8064-9.05216-16.71168-4.64896-7.8848-9.74848-15.89248-15.31904-24.02304a151.83872 151.83872 0 0 0-17.75616-21.58592c-6.26688-6.26688-11.71456-9.40032-16.36352-9.40032-3.25632 0-6.84032 1.04448-10.79296 3.13344a40.93952 40.93952 0 0 0-10.79296 8.35584 56.40192 56.40192 0 0 0-8.00768 10.79296 22.54848 22.54848 0 0 0-3.13344 11.14112v11.14112c0 3.70688-0.22528 6.9632-0.69632 9.74848-0.47104 2.78528-2.08896 4.17792-4.87424 4.17792v13.23008l5.57056 19.49696v32.72704c0 6.9632 0.9216 12.53376 2.78528 16.71168 1.8432 4.17792 2.78528 9.5232 2.78528 16.01536v6.26688c0 3.25632 1.04448 7.8848 3.13344 13.9264 2.08896 6.0416 4.3008 12.53376 6.61504 19.49696 2.31424 6.9632 4.52608 13.80352 6.61504 20.54144 2.08896 6.73792 3.13344 12.65664 3.13344 17.75616 0 3.70688-1.51552 7.7824-4.52608 12.1856-3.01056 4.4032-8.00768 6.61504-14.97088 6.61504a10.6496 10.6496 0 0 1-7.31136-2.78528c-2.08896-1.8432-8.00768-2.78528-17.75616-2.78528-0.9216 0.47104-1.8432 1.6384-2.78528 3.4816a18.432 18.432 0 0 0-2.78528 10.4448v11.14112c0 4.17792 4.05504 10.32192 12.1856 18.45248 8.13056 8.13056 17.408 16.24064 27.8528 24.3712 10.4448 8.13056 20.54144 15.31904 30.28992 21.58592 9.74848 6.26688 16.01536 9.40032 18.80064 9.40032z m2.08896 164.33152c1.8432 0 4.3008 0.34816 7.31136 1.04448 3.01056 0.69632 6.144 1.39264 9.40032 2.08896 3.25632 0.69632 6.38976 1.39264 9.40032 2.08896 3.01056 0.69632 5.2224 1.04448 6.61504 1.04448 6.49216-2.31424 10.67008-6.26688 12.53376-11.83744 1.8432-5.57056 4.64896-11.3664 8.35584-17.408 0-3.70688 0.34816-7.43424 1.04448-11.14112 0.69632-3.70688 1.04448-7.18848 1.04448-10.4448 0-2.78528-0.9216-6.144-2.78528-10.09664-1.8432-3.95264-2.78528-8.92928-2.78528-14.97088-0.9216-3.25632-2.21184-7.18848-3.82976-11.83744-1.6384-4.64896-3.70688-8.92928-6.26688-12.88192a36.51584 36.51584 0 0 0-9.05216-9.74848 14.80704 14.80704 0 0 0-12.1856-2.43712c-6.49216 0-13.57824 2.21184-21.23776 6.61504a43.04896 43.04896 0 0 0-17.05984 17.05984c-3.25632 2.78528-4.4032 6.9632-3.4816 12.53376 0.9216 5.57056 1.39264 10.4448 1.39264 14.62272 0 12.53376 2.08896 22.7328 6.26688 30.63808 4.17792 7.8848 9.27744 16.24064 15.31904 25.06752z"  horiz-adv-x="1024" />

    
    <glyph glyph-name="close" unicode="&#59073;" d="M512 384m-512 0a512 512 0 1 1 1024 0 512 512 0 1 1-1024 0ZM376.32 573.44l326.4-326.4c15.36-15.36 15.36-39.68 0-53.76-15.36-15.36-39.68-15.36-53.76 0L322.56 519.6800000000001c-15.36 15.36-15.36 39.68 0 53.76 14.08 15.36 38.4 15.36 53.76 0zM701.44 573.44c15.36-15.36 15.36-39.68 0-53.76L376.32 194.55999999999995c-15.36-15.36-39.68-15.36-53.76 0-15.36 15.36-15.36 39.68 0 53.76l326.4 326.4c14.08 14.08 38.4 14.08 52.48-1.28z"  horiz-adv-x="1024" />

    
    <glyph glyph-name="warning" unicode="&#59074;" d="M873.372559 745.639156C673.957823 945.053892 349.775579 945.053892 149.294455 745.639156-50.120281 546.224421-50.120281 222.04217700000004 149.294455 21.561052000000018c199.414736-199.414736 523.59698-199.414736 724.078104 0 200.481125 200.481125 200.481125 524.663369 0 724.078104zM477.742255 640.066649c0 15.995834 14.929445 28.792502 34.124446 28.792502 19.195001 0 34.124447-12.796668 34.124447-28.792502v-397.763082c0-15.995834-14.929445-28.792502-34.124447-28.792502-19.195001 0-34.124447 12.796668-34.124446 28.792502V640.066649zM511.866701 65.28299900000002c-25.593335 0-45.854725 20.26139-45.854725 45.854726s20.26139 45.854725 45.854725 45.854725 45.854725-20.26139 45.854726-45.854725c0-24.526946-20.26139-45.854725-45.854726-45.854726z"  horiz-adv-x="1024" />

    
    <glyph glyph-name="order1" unicode="&#59077;" d="M1024 384c0-282.453333-229.546667-512-512-512S0 101.54666699999996 0 384 229.546667 896 512 896s512-229.546667 512-512zM450.56 602.4533329999999h119.466667c13.653333 0 25.6 12.8 25.6 29.013334s-11.946667 29.013333-26.453334 29.013333H450.56c-14.506667 0-26.453333-12.8-26.453333-29.013333s11.946667-29.013333 26.453333-29.013334zM701.44 637.44h-63.146667c0.853333-3.413333 0.853333-5.973333 0.853334-9.386667 0-23.893333-17.92-48.64-38.4-48.64H419.84c-22.186667 0-40.106667 23.893333-40.106667 48.64 0 3.413333 0 6.826667 0.853334 9.386667h-63.146667c-48.64 0-61.44-27.306667-61.44-67.413333v-395.093334c0-42.666667 17.066667-66.56 64.853333-66.56h376.32c47.786667 0 70.826667 18.773333 70.826667 66.56V570.026667c0 40.106667-21.333333 67.413333-66.56 67.413333zM378.026667 500.053333h265.386666c10.24 0 17.92-9.386667 18.773334-19.626666 0-10.24-10.24-20.48-20.48-20.48H376.32c-9.386667 0-16.213333 10.24-16.213333 20.48 0 9.386667 8.533333 19.626667 17.92 19.626666z m263.68-254.293333H381.44c-6.826667 0-12.8 1.706667-17.92 5.973333-16.213333 14.506667-4.266667 34.133333 10.24 34.133334h265.386667c9.386667 0 17.92-7.68 18.773333-17.92 0-10.24-6.826667-22.186667-16.213333-22.186667z m0.853333 107.52H376.32c-10.24 0-16.213333 10.24-16.213333 20.48 0 9.386667 8.533333 19.626667 17.92 19.626667h265.386666c10.24 0 17.92-9.386667 18.773334-19.626667 0.853333-10.24-9.386667-20.48-19.626667-20.48z"  horiz-adv-x="1024" />

    
    <glyph glyph-name="cancel" unicode="&#59078;" d="M460.8 563.2h-25.6V742.4L102.4 435.2l332.8-307.2v179.2h102.4c253.44 0 332.8-194.56 332.8-230.4v25.6c0 253.44-117.76 460.8-409.6 460.8z"  horiz-adv-x="1024" />

    
    </font>
</defs>
</svg>
